<svg width="30" height="30" viewBox="0 0 30 30" fill="none" xmlns="http://www.w3.org/2000/svg">
<g clip-path="url(#clip0_465_900)">
<path d="M23.4094 19.7527L20.137 18.7621L19.1487 17.339C18.988 17.1065 18.6727 17.0404 18.4308 17.1869V16.1001C18.7497 15.8325 19.0345 15.5273 19.2864 15.1954C20.3405 14.7852 21.1188 13.8236 21.2655 12.6654C22.9427 12.1344 23.2998 9.70052 21.8277 8.71996C22.1568 7.86323 22.2621 5.47982 22.2672 4.91113C22.0735 1.57448 18.3666 -0.773446 15.2176 0.236664C15.2177 0.236573 11.6464 1.2813 11.6464 1.2813C8.55798 1.29881 7.46071 2.37465 7.46071 5.36554V9.16625C7.16195 9.54916 6.97652 10.0244 6.97652 10.5465C6.97131 11.8646 8.11084 12.8932 9.41669 12.8046C9.64554 14.1218 10.3363 15.2816 11.3212 16.1057V17.1869C11.0762 17.038 10.756 17.1088 10.5975 17.3474L9.65211 18.7657L6.34461 19.7519C4.9642 20.1637 4 21.4573 4 22.8978V29.4634C4 29.7591 4.23975 29.9988 4.53543 29.9988C9.69024 29.9924 20.0629 30.0035 25.2165 29.9988C25.5122 29.9988 25.7519 29.7591 25.7519 29.4634V22.8978C25.7519 21.4573 24.7878 20.1637 23.4094 19.7527ZM18.5505 18.355L19.1788 19.2601L17.9236 21.6667L15.8383 19.9252L18.5505 18.355ZM20.5114 11.7337H20.4167V9.35933C22.0437 9.29468 22.1374 11.6784 20.5114 11.7337ZM11.7238 2.3519C11.7747 2.3519 11.8252 2.34458 11.8741 2.33046L15.517 1.26483C18.0212 0.450949 21.039 2.32114 21.1986 4.97031C21.1429 5.75997 21.1277 7.42134 20.831 8.32077C20.6983 8.29943 20.5541 8.28351 20.4167 8.28847C20.4167 8.28846 20.4167 6.14438 20.4167 6.14438C20.4167 5.86019 20.195 5.62568 19.9113 5.60973C18.5396 5.53287 17.5725 5.32581 16.9547 4.97652C16.7652 4.86958 16.5312 4.88762 16.3597 5.02201C14.7813 6.26673 12.7091 6.46647 10.0234 5.63299C9.86021 5.58253 9.68374 5.6126 9.54701 5.71325C9.41001 5.81417 9.32922 5.97417 9.32922 6.14437V8.28846C9.05531 8.27933 8.78067 8.32687 8.53157 8.41173V5.36553C8.53157 2.97151 9.18779 2.3519 11.7238 2.3519ZM8.04738 10.5465C8.04453 9.85402 8.64303 9.31311 9.32923 9.35933C9.32923 9.35932 9.32923 11.7337 9.32923 11.7337C8.64304 11.7799 8.04451 11.2391 8.04738 10.5465ZM10.4001 11.8545C10.4116 10.6665 10.3918 8.01962 10.4001 6.85239C12.9476 7.50178 15.0783 7.24008 16.7453 6.0696C17.3968 6.36424 18.2405 6.55039 19.3458 6.64373C19.3494 7.88579 19.3433 10.5936 19.3458 11.8545C19.3458 12.7486 19.0794 13.5804 18.6257 14.2799C18.4728 14.316 18.3155 14.3398 18.1518 14.3398H16.8305C16.87 14.0107 16.6388 13.6965 16.2951 13.6993H14.1008C13.8051 13.6993 13.5654 13.939 13.5654 14.2347V15.5158C13.5654 15.8115 13.8051 16.0512 14.1008 16.0512H16.2951C16.6386 16.0535 16.8703 15.7399 16.8305 15.4107C16.8305 15.4107 17.5747 15.4107 17.5747 15.4107C16.823 15.9831 15.8885 16.3273 14.8728 16.3273C12.4066 16.3273 10.4001 14.3207 10.4001 11.8545ZM15.7596 14.9803H14.6362V14.7701H15.7596V14.9803ZM12.392 16.805C13.8681 17.5885 15.8849 17.5871 17.3599 16.8019V17.8069L14.876 19.2451L12.392 17.8069V16.805ZM11.2098 18.3597L13.9136 19.9252L11.8333 21.6622L10.6098 19.2599L11.2098 18.3597ZM5.07086 22.8978C5.07086 21.9271 5.72054 21.0557 6.65049 20.7783L9.7159 19.8641L11.1839 22.7467C11.3275 23.0481 11.7538 23.1346 12.0043 22.9148C12.0043 22.9148 14.368 20.9411 14.368 20.9411L14.3393 28.928H5.07087L5.07086 22.8978ZM24.6811 28.928H15.4101L15.4386 20.9867L17.7476 22.9148C17.998 23.1342 18.4191 23.0491 18.5657 22.7514C18.5657 22.7514 20.0729 19.8617 20.0729 19.8617L23.1014 20.7783C24.0314 21.0557 24.6811 21.9271 24.6811 22.8978L24.6811 28.928Z" fill="#757575"/>
</g>
<defs>
<clipPath id="clip0_465_900">
<rect width="30" height="30" fill="white"/>
</clipPath>
</defs>
</svg>
