<svg width="20" height="20" viewBox="0 0 20 20" fill="none" xmlns="http://www.w3.org/2000/svg">
<g clip-path="url(#clip0_1_1257)">
<path d="M2.72137 7.75223C2.72137 7.57965 2.86129 7.43973 3.03387 7.43973H10.9267C11.0993 7.43973 11.2392 7.57965 11.2392 7.75223C11.2392 7.9248 11.0993 8.06473 10.9267 8.06473H3.03387C2.86129 8.06473 2.72137 7.9248 2.72137 7.75223ZM10.0853 16.7439H3.03387C2.86129 16.7439 2.72137 16.8838 2.72137 17.0564C2.72137 17.2289 2.86129 17.3689 3.03387 17.3689H10.0853C10.2579 17.3689 10.3978 17.2289 10.3978 17.0564C10.3978 16.8838 10.2579 16.7439 10.0853 16.7439ZM3.03387 5.73867H8.69977C8.87234 5.73867 9.01227 5.59875 9.01227 5.42617C9.01227 5.25359 8.87234 5.11367 8.69977 5.11367H3.03387C2.86129 5.11367 2.72137 5.25359 2.72137 5.42617C2.72137 5.59875 2.86129 5.73867 3.03387 5.73867ZM19.8087 18.9699L19.0088 19.7943C18.8758 19.9313 18.6986 20.0002 18.5212 20.0002C18.3507 20.0002 18.1801 19.9365 18.0483 19.8088L15.9771 17.7989C15.9198 17.8663 15.8345 17.9092 15.739 17.9092H13.9606V19.6875C13.9606 19.8601 13.8207 20 13.6481 20H0.3125C0.139922 20 0 19.8601 0 19.6875V2.40336C0 2.23078 0.139922 2.09086 0.3125 2.09086H2.0909V0.3125C2.0909 0.139922 2.23082 0 2.4034 0H13.5784C13.6612 0 13.7407 0.0329297 13.7993 0.0915234L15.96 2.25215C16.0186 2.31078 16.0515 2.39023 16.0515 2.47312V10.5342C16.3844 11.1486 16.5736 11.8518 16.5736 12.5982C16.5736 13.4276 16.34 14.2034 15.9354 14.8634L16.8199 15.7314C16.9052 15.6919 16.9985 15.6698 17.0955 15.6683C17.2779 15.6673 17.4489 15.7335 17.5788 15.8596L19.7943 18.0094C20.063 18.2703 20.0694 18.7012 19.8087 18.9699ZM15.5666 15.3772C15.4827 15.4779 15.3944 15.5748 15.3019 15.6675L16.0788 16.43L16.3523 16.1481L15.5666 15.3772ZM15.9486 12.5982C15.9486 10.546 14.279 8.87641 12.2268 8.87641C10.1746 8.87641 8.505 10.546 8.505 12.5982C8.505 14.6505 10.1746 16.32 12.2268 16.32C14.279 16.32 15.9486 14.6505 15.9486 12.5982ZM11.8 4.25152H12.8936L11.8 3.15781V4.25152ZM13.8909 2.16062H14.9845L13.8909 1.06695V2.16062ZM2.7159 2.09086H11.4875C11.5704 2.09086 11.6498 2.12379 11.7084 2.18238L13.8691 4.34305C13.9277 4.40168 13.9606 4.48113 13.9606 4.56402V8.61254C14.5202 8.85691 15.0187 9.21566 15.4265 9.65926V2.78562H13.5784C13.4058 2.78562 13.2659 2.6457 13.2659 2.47312V0.625H2.7159V2.09086ZM13.3356 17.5966V16.8015C12.9815 16.895 12.6099 16.945 12.2268 16.945C10.7357 16.945 9.41773 16.1903 8.63441 15.0429H3.03387C2.86129 15.0429 2.72137 14.9029 2.72137 14.7304C2.72137 14.5578 2.86129 14.4179 3.03387 14.4179H8.27969C8.03898 13.8978 7.89797 13.3226 7.88164 12.7168H3.03387C2.86129 12.7168 2.72137 12.5769 2.72137 12.4043C2.72137 12.2317 2.86129 12.0918 3.03387 12.0918H7.90965C7.98137 11.4767 8.18191 10.9005 8.48367 10.3907H3.03387C2.86129 10.3907 2.72137 10.2508 2.72137 10.0782C2.72137 9.90566 2.86129 9.76574 3.03387 9.76574H8.93227C9.73004 8.83914 10.911 8.25137 12.2268 8.25137C12.6099 8.25137 12.9814 8.30141 13.3356 8.39488V4.87648H11.4875C11.3149 4.87648 11.175 4.73656 11.175 4.56398V2.71586H0.625V19.375H13.3356V17.5966ZM15.4265 17.2841V16.6655L14.8283 16.0785C14.5611 16.2787 14.2701 16.4487 13.9605 16.5839V17.2841H15.4265ZM19.3589 18.4579L17.1435 16.3081C17.1309 16.2959 17.1162 16.2932 17.1058 16.2932C17.1055 16.2932 17.1052 16.2932 17.1049 16.2932C17.0945 16.2934 17.0793 16.2963 17.0668 16.3092L16.2668 17.1336C16.2467 17.1543 16.2473 17.1902 16.268 17.2103L18.4835 19.3601C18.5042 19.3803 18.5401 19.3797 18.5602 19.359L19.3601 18.5346C19.3803 18.5139 19.3797 18.478 19.3589 18.4579ZM15.4362 12.5982C15.4362 14.3679 13.9965 15.8076 12.2268 15.8076C10.4571 15.8076 9.01742 14.3679 9.01742 12.5982C9.01742 10.8286 10.4571 9.38887 12.2268 9.38887C13.9965 9.38887 15.4362 10.8286 15.4362 12.5982ZM14.8112 12.5982C14.8112 11.1732 13.6518 10.0139 12.2268 10.0139C10.8018 10.0139 9.64242 11.1732 9.64242 12.5982C9.64242 14.0232 10.8018 15.1826 12.2268 15.1826C13.6518 15.1826 14.8112 14.0232 14.8112 12.5982Z" fill="#757575"/>
</g>
<defs>
<clipPath id="clip0_1_1257">
<rect width="20" height="20" fill="white"/>
</clipPath>
</defs>
</svg>
