<svg width="20" height="20" viewBox="0 0 20 20" fill="none" xmlns="http://www.w3.org/2000/svg">
<g clip-path="url(#clip0_1782_6342)">
<path d="M14.5017 5.07886L14.5017 5.07862C14.4975 4.17891 13.7668 3.44786 12.8707 3.44786H3.57318C2.67315 3.44786 1.94219 4.17883 1.94219 5.07886V18.419C1.94219 19.319 2.67315 20.05 3.57318 20.05H12.8707C13.7708 20.05 14.5017 19.319 14.5017 18.419L14.5017 5.07886ZM13.2918 18.4149C13.2918 18.6494 13.1012 18.84 12.8667 18.84H3.56909C3.33457 18.84 3.14397 18.6494 3.14397 18.4149V5.07886C3.14397 4.84434 3.33457 4.65374 3.56909 4.65374H12.8667C13.1012 4.65374 13.2918 4.84434 13.2918 5.07886V18.4149Z" fill="#757575" stroke="#757575" stroke-width="0.1"/>
<path d="M16.4264 -0.05H7.12885C6.22882 -0.05 5.49785 0.680966 5.49785 1.581C5.49785 1.9158 5.76599 2.18393 6.10079 2.18393C6.43559 2.18393 6.70373 1.9158 6.70373 1.581C6.70373 1.34648 6.89433 1.15588 7.12885 1.15588H16.4264C16.6609 1.15588 16.8515 1.34648 16.8515 1.581V14.9212C16.8515 15.1557 16.6609 15.3463 16.4264 15.3463C16.0916 15.3463 15.8235 15.6144 15.8235 15.9492C15.8235 16.284 16.0916 16.5522 16.4264 16.5522C17.3264 16.5522 18.0574 15.8212 18.0574 14.9212V1.581C18.0574 0.680966 17.3264 -0.05 16.4264 -0.05Z" fill="#757575" stroke="#757575" stroke-width="0.1"/>
</g>
<defs>
<clipPath id="clip0_1782_6342">
<rect width="20" height="20" fill="white"/>
</clipPath>
</defs>
</svg>
