<svg width="18" height="18" viewBox="0 0 18 18" fill="none" xmlns="http://www.w3.org/2000/svg">
<g clip-path="url(#clip0_999_4250)">
<mask id="mask0_999_4250" style="mask-type:luminance" maskUnits="userSpaceOnUse" x="0" y="0" width="18" height="18">
<path d="M0 1.90735e-06H18V18H0V1.90735e-06Z" fill="white"/>
</mask>
<g mask="url(#mask0_999_4250)">
<path d="M12.5675 2.2716C11.744 1.17356 10.4516 0.527355 9.07907 0.527355H8.9209C7.54836 0.527355 6.25595 1.17356 5.43245 2.2716L5.43231 2.27174C5.18164 2.60604 5.04608 3.01258 5.04608 3.43045V5.61091C5.04608 7.79464 6.8163 9.56483 9 9.56483C11.1837 9.56483 12.9539 7.79464 12.9539 5.61091V3.43045C12.9539 3.01258 12.8184 2.60604 12.5677 2.27174L12.5675 2.2716Z" stroke="white" stroke-width="1.17187" stroke-miterlimit="10" stroke-linecap="round" stroke-linejoin="round"/>
<path d="M5.04608 5.04609H5.04615C5.40777 5.04609 5.75459 4.90241 6.01031 4.64675C6.33537 4.32166 6.74061 3.91641 6.74061 3.91641H6.74068C8.16296 4.62759 9.83703 4.62759 11.2593 3.91641H11.2594C11.2594 3.91641 11.6646 4.32166 11.9897 4.64675C12.2454 4.90241 12.5922 5.04609 12.9538 5.04609H12.9539" stroke="white" stroke-width="1.17187" stroke-miterlimit="10" stroke-linecap="round" stroke-linejoin="round"/>
<path d="M17.4727 17.4727C17.4727 17.4727 16.7831 15.4041 16.2838 13.9061C15.9701 12.9649 15.1856 12.2574 14.2172 12.0422C12.7229 11.7101 10.6945 11.2594 10.6945 11.2594L9 14.0836L7.30547 11.2594C7.30547 11.2594 5.27709 11.7101 3.78285 12.0422C2.81443 12.2574 2.02992 12.9649 1.71619 13.9061C1.21686 15.4041 0.527344 17.4727 0.527344 17.4727" stroke="white" stroke-width="1.17187" stroke-miterlimit="10" stroke-linecap="round" stroke-linejoin="round"/>
<path d="M7.30548 11.2594V9.27146" stroke="white" stroke-width="1.17187" stroke-miterlimit="10" stroke-linecap="round" stroke-linejoin="round"/>
<path d="M10.6945 11.2594V9.27146" stroke="white" stroke-width="1.17187" stroke-miterlimit="10" stroke-linecap="round" stroke-linejoin="round"/>
<path d="M11.8243 17.4727H11.2594V15.7781C11.2594 15.3287 11.4379 14.8977 11.7557 14.5799C12.0735 14.2621 12.5045 14.0836 12.9539 14.0836C13.8898 14.0836 14.6485 14.8423 14.6485 15.7781V17.4727H14.0836" stroke="white" stroke-width="1.17187" stroke-miterlimit="10" stroke-linecap="round" stroke-linejoin="round"/>
<path d="M12.9539 13.5187V11.7615" stroke="white" stroke-width="1.17187" stroke-miterlimit="10" stroke-linecap="round" stroke-linejoin="round"/>
<path d="M5.04612 15.2133C4.42262 15.2133 3.91644 15.7195 3.91644 16.343C3.91644 16.9665 4.42262 17.4727 5.04612 17.4727C5.66961 17.4727 6.17579 16.9665 6.17579 16.343C6.17579 15.7195 5.66961 15.2133 5.04612 15.2133Z" stroke="white" stroke-width="1.17187" stroke-miterlimit="10" stroke-linecap="round" stroke-linejoin="round"/>
<path d="M5.04608 15.2133V11.7614" stroke="white" stroke-width="1.17187" stroke-miterlimit="10" stroke-linecap="round" stroke-linejoin="round"/>
</g>
</g>
<defs>
<clipPath id="clip0_999_4250">
<rect width="18" height="18" fill="white"/>
</clipPath>
</defs>
</svg>
