<svg width="20" height="20" viewBox="0 0 20 20" fill="none" xmlns="http://www.w3.org/2000/svg">
<g clip-path="url(#clip0_1_1273)">
<path d="M10 0C4.47297 0 0 4.47254 0 10C0 15.5271 4.47254 20 10 20C15.527 20 20 15.5275 20 10C20 4.47293 15.5275 0 10 0ZM10 18.4375C5.33656 18.4375 1.5625 14.6638 1.5625 10C1.5625 5.33652 5.33621 1.5625 10 1.5625C14.6634 1.5625 18.4375 5.33621 18.4375 10C18.4375 14.6635 14.6638 18.4375 10 18.4375Z" fill="#757575"/>
<path d="M13.4213 12.3165L11.1049 10L13.4213 7.68353C13.7264 7.37846 13.7265 6.88381 13.4214 6.57869C13.1162 6.27357 12.6216 6.27361 12.3165 6.57869L10 8.89518L7.68349 6.57869C7.37845 6.27357 6.88372 6.27357 6.57864 6.57869C6.27356 6.88381 6.27356 7.37846 6.57868 7.68353L8.89516 10L6.57868 12.3165C6.27356 12.6216 6.27352 13.1163 6.57864 13.4213C6.88384 13.7265 7.37849 13.7264 7.68349 13.4213L10 11.1049L12.3165 13.4213C12.6215 13.7264 13.1163 13.7265 13.4214 13.4213C13.7265 13.1162 13.7265 12.6216 13.4213 12.3165Z" fill="#757575"/>
</g>
<defs>
<clipPath id="clip0_1_1273">
<rect width="20" height="20" fill="white"/>
</clipPath>
</defs>
</svg>
