<svg width="20" height="20" viewBox="0 0 20 20" fill="none" xmlns="http://www.w3.org/2000/svg">
<g clip-path="url(#clip0_282_271)">
<path d="M10 0.833313C8.18705 0.833313 6.41477 1.37093 4.90732 2.37817C3.39987 3.38542 2.22495 4.81706 1.53115 6.49205C0.837346 8.16704 0.655815 10.0101 1.00951 11.7883C1.36321 13.5665 2.23625 15.1998 3.51823 16.4818C4.80021 17.7638 6.43356 18.6368 8.21172 18.9905C9.98988 19.3442 11.833 19.1627 13.508 18.4689C15.183 17.7751 16.6146 16.6002 17.6218 15.0927C18.6291 13.5853 19.1667 11.813 19.1667 9.99998C19.1638 7.56971 18.1972 5.2398 16.4787 3.52133C14.7602 1.80287 12.4303 0.83618 10 0.833313ZM2.50004 9.99998C2.49938 8.29929 3.0801 6.64946 4.14588 5.32415L14.6759 15.8541C13.5738 16.7375 12.2444 17.2913 10.8412 17.4516C9.43789 17.6119 8.01787 17.3723 6.74496 16.7603C5.47204 16.1482 4.39808 15.1888 3.647 13.9927C2.89591 12.7965 2.4983 11.4124 2.50004 9.99998ZM15.8542 14.6758L5.32421 4.14581C6.76357 2.99198 8.57807 2.40985 10.42 2.51095C12.262 2.61205 14.0019 3.38928 15.3063 4.69371C16.6107 5.99813 17.388 7.73802 17.4891 9.57999C17.5902 11.422 17.008 13.2365 15.8542 14.6758Z" fill="white" fill-opacity="0.7"/>
</g>
<defs>
<clipPath id="clip0_282_271">
<rect width="20" height="20" fill="white"/>
</clipPath>
</defs>
</svg>
