<?xml version="1.0" encoding="UTF-8"?>
<!DOCTYPE svg  PUBLIC '-//W3C//DTD SVG 1.1//EN'  'http://www.w3.org/Graphics/SVG/1.1/DTD/svg11.dtd'>
<svg clip-rule="evenodd" fill-rule="evenodd" stroke-linejoin="round" stroke-miterlimit="1.4142" version="1.1" viewBox="0 0 512 512" xml:space="preserve" xmlns="http://www.w3.org/2000/svg">
    <g transform="translate(10.667)">
        
            <path d="m320 21.333h-234.67c-23.466 0-42.666 19.2-42.666 42.667v277.33c0 11.734 9.6 21.334 21.333 21.334s21.333-9.6 21.333-21.334v-256c0-11.733 9.6-21.333 21.334-21.333h213.33c11.733 0 21.333-9.6 21.333-21.333 0-11.734-9.6-21.334-21.333-21.334zm85.333 85.334h-234.67c-23.467 0-42.667 19.2-42.667 42.666v298.67c0 23.467 19.2 42.667 42.667 42.667h234.67c23.467 0 42.667-19.2 42.667-42.667v-298.67c0-23.466-19.2-42.666-42.667-42.666zm-21.333 341.33h-192c-11.733 0-21.333-9.6-21.333-21.333v-256c0-11.734 9.6-21.334 21.333-21.334h192c11.733 0 21.333 9.6 21.333 21.334v256c0 11.733-9.6 21.333-21.333 21.333z" fill="#fff" fill-rule="nonzero"/>
        
    </g>
</svg>
