<?xml version="1.0" encoding="UTF-8"?>
<!DOCTYPE svg  PUBLIC '-//W3C//DTD SVG 1.1//EN'  'http://www.w3.org/Graphics/SVG/1.1/DTD/svg11.dtd'>
<svg clip-rule="evenodd" fill-rule="evenodd" stroke-linejoin="round" stroke-miterlimit="1.4142" version="1.1" viewBox="0 0 24 24" xml:space="preserve" xmlns="http://www.w3.org/2000/svg">
    <path d="m5 22c-0.55 0-1.021-0.196-1.413-0.587-0.391-0.392-0.587-0.863-0.587-1.413v-14c0-0.55 0.196-1.021 0.587-1.412 0.392-0.392 0.863-0.588 1.413-0.588h1v-2h2v2h8v-2h2v2h1c0.55 0 1.021 0.196 1.413 0.588 0.391 0.391 0.587 0.862 0.587 1.412v14c0 0.55-0.196 1.021-0.587 1.413-0.392 0.391-0.863 0.587-1.413 0.587h-14zm0-2h14v-10h-14v10zm0-12h14v-2h-14v2zm7 6c-0.283 0-0.521-0.096-0.712-0.288-0.192-0.191-0.288-0.429-0.288-0.712s0.096-0.521 0.288-0.713c0.191-0.191 0.429-0.287 0.712-0.287s0.521 0.096 0.713 0.287c0.191 0.192 0.287 0.43 0.287 0.713s-0.096 0.521-0.287 0.712c-0.192 0.192-0.43 0.288-0.713 0.288zm-4 0c-0.283 0-0.521-0.096-0.713-0.288-0.191-0.191-0.287-0.429-0.287-0.712s0.096-0.521 0.287-0.713c0.192-0.191 0.43-0.287 0.713-0.287s0.521 0.096 0.713 0.287c0.191 0.192 0.287 0.43 0.287 0.713s-0.096 0.521-0.287 0.712c-0.192 0.192-0.43 0.288-0.713 0.288zm8 0c-0.283 0-0.521-0.096-0.712-0.288-0.192-0.191-0.288-0.429-0.288-0.712s0.096-0.521 0.288-0.713c0.191-0.191 0.429-0.287 0.712-0.287s0.521 0.096 0.712 0.287c0.192 0.192 0.288 0.43 0.288 0.713s-0.096 0.521-0.288 0.712c-0.191 0.192-0.429 0.288-0.712 0.288zm-4 4c-0.283 0-0.521-0.096-0.712-0.288-0.192-0.191-0.288-0.429-0.288-0.712s0.096-0.521 0.288-0.712c0.191-0.192 0.429-0.288 0.712-0.288s0.521 0.096 0.713 0.288c0.191 0.191 0.287 0.429 0.287 0.712s-0.096 0.521-0.287 0.712c-0.192 0.192-0.43 0.288-0.713 0.288zm-4 0c-0.283 0-0.521-0.096-0.713-0.288-0.191-0.191-0.287-0.429-0.287-0.712s0.096-0.521 0.287-0.712c0.192-0.192 0.43-0.288 0.713-0.288s0.521 0.096 0.713 0.288c0.191 0.191 0.287 0.429 0.287 0.712s-0.096 0.521-0.287 0.712c-0.192 0.192-0.43 0.288-0.713 0.288zm8 0c-0.283 0-0.521-0.096-0.712-0.288-0.192-0.191-0.288-0.429-0.288-0.712s0.096-0.521 0.288-0.712c0.191-0.192 0.429-0.288 0.712-0.288s0.521 0.096 0.712 0.288c0.192 0.191 0.288 0.429 0.288 0.712s-0.096 0.521-0.288 0.712c-0.191 0.192-0.429 0.288-0.712 0.288z" fill="#fff" fill-rule="nonzero"/>
</svg>

