<svg width="24" height="24" viewBox="0 0 24 24" fill="none" xmlns="http://www.w3.org/2000/svg">
<path d="M6.14702 0H14.1772L20.9748 7.09195V20.8779C20.9748 22.6023 19.5771 24 17.8526 24H6.14702C4.42256 24 3.0249 22.6023 3.0249 20.8779V3.12212C3.0249 1.39769 4.42256 0 6.14702 0Z" fill="#0263D1"/>
<path opacity="0.302" fill-rule="evenodd" clip-rule="evenodd" d="M14.1675 0V7.0337H20.9747L14.1675 0Z" fill="white"/>
<path d="M5.92383 17.1248V13.1517H7.33122C7.61269 13.1517 7.87478 13.1938 8.11743 13.2715C8.36008 13.3523 8.58008 13.4688 8.77746 13.6241C8.97481 13.7794 9.13013 13.9865 9.24336 14.2453C9.35659 14.5041 9.41484 14.8018 9.41484 15.1383C9.41484 15.4747 9.35659 15.7724 9.24336 16.0312C9.13013 16.29 8.97481 16.4971 8.77746 16.6524C8.58011 16.8077 8.36008 16.9242 8.11743 17.0051C7.87478 17.0827 7.61272 17.1248 7.33122 17.1248H5.92383ZM6.91709 16.261H7.2115C7.37004 16.261 7.51887 16.2415 7.6515 16.2059C7.78739 16.1671 7.91032 16.1057 8.02679 16.0248C8.14327 15.9439 8.23384 15.8274 8.29856 15.6753C8.36651 15.5265 8.39884 15.3453 8.39884 15.1383C8.39884 14.9312 8.36648 14.75 8.29856 14.598C8.23384 14.4491 8.14327 14.3327 8.02679 14.2518C7.91032 14.1677 7.78739 14.1094 7.6515 14.0706C7.51887 14.035 7.37004 14.0156 7.2115 14.0156H6.91709V16.261ZM11.8252 17.1701C11.2266 17.1701 10.7316 16.976 10.3401 16.591C9.94866 16.2059 9.75453 15.7206 9.75453 15.1383C9.75453 14.5559 9.94866 14.0706 10.3401 13.6856C10.7316 13.3006 11.2266 13.1065 11.8252 13.1065C12.414 13.1065 12.9025 13.3006 13.294 13.6856C13.6823 14.0707 13.8764 14.556 13.8764 15.1383C13.8764 15.7206 13.6823 16.206 13.294 16.591C12.9025 16.976 12.414 17.1701 11.8252 17.1701ZM11.0616 15.9762C11.259 16.1962 11.5113 16.3063 11.8187 16.3063C12.126 16.3063 12.3752 16.1962 12.5725 15.9762C12.7699 15.753 12.8669 15.4747 12.8669 15.1383C12.8669 14.8018 12.7699 14.5235 12.5725 14.3003C12.3752 14.0803 12.126 13.9703 11.8187 13.9703C11.5113 13.9703 11.259 14.0803 11.0616 14.3003C10.8643 14.5235 10.764 14.8018 10.764 15.1383C10.764 15.4747 10.8643 15.753 11.0616 15.9762ZM16.2382 17.1701C15.6591 17.1701 15.177 16.9889 14.7952 16.633C14.4102 16.2739 14.2194 15.7756 14.2194 15.1383C14.2194 14.5041 14.4135 14.0059 14.8017 13.6468C15.1932 13.2876 15.6688 13.1064 16.2382 13.1064C16.7527 13.1064 17.1733 13.2326 17.5065 13.4882C17.8365 13.7406 18.0274 14.0771 18.0759 14.4976L17.073 14.7015C17.0309 14.4815 16.9306 14.3035 16.7753 14.1709C16.62 14.0382 16.4388 13.9703 16.2318 13.9703C15.947 13.9703 15.7108 14.0706 15.52 14.2744C15.3291 14.4815 15.232 14.7662 15.232 15.1382C15.232 15.5103 15.3291 15.795 15.5167 15.9989C15.7076 16.2059 15.9438 16.3062 16.2317 16.3062C16.4388 16.3062 16.6167 16.248 16.7623 16.1315C16.9079 16.0151 16.9985 15.8598 17.0373 15.6656L18.063 15.8986C17.9691 16.2998 17.762 16.6104 17.4385 16.8336C17.1182 17.0569 16.7171 17.1701 16.2382 17.1701Z" fill="white"/>
</svg>
