<svg width="800" height="800" viewBox="0 0 800 800" fill="none" xmlns="http://www.w3.org/2000/svg">
<g clip-path="url(#clip0_2_1102)">
<path d="M400 504.673C428.791 504.673 452.134 481.33 452.134 452.539V214.84C452.134 186.045 428.791 162.705 400 162.705C371.209 162.705 347.866 186.045 347.866 214.84V452.543C347.866 481.334 371.209 504.673 400 504.673Z" fill="white"/>
<path d="M400.013 533.051C386.291 533.051 372.815 538.598 363.139 548.316C353.425 557.992 347.878 571.422 347.878 585.144C347.878 598.866 353.425 612.337 363.139 622.013C372.815 631.731 386.291 637.278 400.013 637.278C413.734 637.278 427.164 631.731 436.882 622.013C446.554 612.337 452.147 598.866 452.147 585.144C452.147 571.422 446.554 557.992 436.882 548.316C427.164 538.598 413.734 533.051 400.013 533.051Z" fill="white"/>
<path d="M400 0C179.442 0 0 179.438 0 400C0 620.562 179.438 800 400 800C620.562 800 799.996 620.562 799.996 400C799.996 179.438 620.562 0 400 0ZM400 737.439C213.934 737.439 62.5613 586.066 62.5613 400C62.5613 213.934 213.934 62.5613 400 62.5613C586.061 62.5613 737.435 213.934 737.435 400C737.435 586.066 586.066 737.439 400 737.439Z" fill="white"/>
</g>
<defs>
<clipPath id="clip0_2_1102">
<rect width="800" height="800" fill="white"/>
</clipPath>
</defs>
</svg>
