<svg width="24" height="24" viewBox="0 0 24 24" fill="none" xmlns="http://www.w3.org/2000/svg">
<path d="M21.5303 3.53024L16.8105 8.24999H19.5C19.9142 8.24999 20.25 8.5858 20.25 8.99999C20.25 9.41417 19.9142 9.74999 19.5 9.74999H15C14.5859 9.74999 14.25 9.41417 14.25 8.99999V4.49999C14.25 4.0858 14.5859 3.74999 15 3.74999C15.4142 3.74999 15.75 4.0858 15.75 4.49999V7.18949L20.4698 2.46974C20.7629 2.17667 21.2374 2.17667 21.5303 2.46974C21.8232 2.7628 21.8234 3.23736 21.5303 3.53024ZM9.00005 3.74999C8.58586 3.74999 8.25005 4.0858 8.25005 4.49999V7.18949L3.5303 2.46974C3.23723 2.17667 2.76267 2.17667 2.4698 2.46974C2.17692 2.7628 2.17673 3.23736 2.4698 3.53024L7.18955 8.24999H4.50005C4.08586 8.24999 3.75005 8.5858 3.75005 8.99999C3.75005 9.41417 4.08586 9.74999 4.50005 9.74999H9.00005C9.41424 9.74999 9.75005 9.41417 9.75005 8.99999V4.49999C9.75005 4.0858 9.41424 3.74999 9.00005 3.74999ZM21.5303 20.4697L16.8105 15.75H19.5C19.9142 15.75 20.25 15.4142 20.25 15C20.25 14.5858 19.9142 14.25 19.5 14.25H15C14.5859 14.25 14.25 14.5858 14.25 15V19.5C14.25 19.9142 14.5859 20.25 15 20.25C15.4142 20.25 15.75 19.9142 15.75 19.5V16.8105L20.4698 21.5302C20.6162 21.6767 20.8082 21.75 21 21.75C21.1919 21.75 21.3839 21.6767 21.5303 21.5302C21.8234 21.2374 21.8234 20.7626 21.5303 20.4697ZM9.00005 14.25H4.50005C4.08586 14.25 3.75005 14.5858 3.75005 15C3.75005 15.4142 4.08586 15.75 4.50005 15.75H7.18955L2.4698 20.4697C2.17673 20.7628 2.17673 21.2374 2.4698 21.5302C2.61623 21.6767 2.80823 21.75 3.00005 21.75C3.19186 21.75 3.38386 21.6767 3.5303 21.5302L8.25005 16.8105V19.5C8.25005 19.9142 8.58586 20.25 9.00005 20.25C9.41424 20.25 9.75005 19.9142 9.75005 19.5V15C9.75005 14.5858 9.41424 14.25 9.00005 14.25Z" fill="white"/>
</svg>
