<svg width="14" height="14" viewBox="0 0 14 14" fill="none" xmlns="http://www.w3.org/2000/svg">
<g clip-path="url(#clip0_6_1109)">
<mask id="mask0_6_1109" style="mask-type:alpha" maskUnits="userSpaceOnUse" x="0" y="0" width="14" height="14">
<path d="M14 0H0V14H14V0Z" fill="#D9D9D9"/>
</mask>
<g mask="url(#mask0_6_1109)">
<path d="M1.4 12.3667C1.015 12.3667 0.685533 12.2297 0.4116 11.9558C0.1372 11.6814 0 11.3517 0 10.9667V2.56666C0 2.18166 0.1372 1.85219 0.4116 1.57826C0.685533 1.30386 1.015 1.16666 1.4 1.16666H12.6C12.985 1.16666 13.3147 1.30386 13.5891 1.57826C13.863 1.85219 14 2.18166 14 2.56666V10.9667C14 11.3517 13.863 11.6814 13.5891 11.9558C13.3147 12.2297 12.985 12.3667 12.6 12.3667H1.4ZM7 7.46666L1.4 3.96666V10.9667H12.6V3.96666L7 7.46666ZM7 6.06666L12.6 2.56666H1.4L7 6.06666ZM1.4 3.96666V2.56666V10.9667V3.96666Z" fill="#00BCE7"/>
</g>
</g>
<defs>
<clipPath id="clip0_6_1109">
<rect width="14" height="14" fill="white"/>
</clipPath>
</defs>
</svg>
