<svg width="24" height="24" viewBox="0 0 24 24" fill="none" xmlns="http://www.w3.org/2000/svg">
<path d="M21.75 3V7.5C21.75 7.91419 21.4142 8.25 21 8.25C20.5858 8.25 20.25 7.91419 20.25 7.5V4.8105L15.5303 9.53025C15.3838 9.67669 15.1918 9.75 15 9.75C14.8082 9.75 14.6162 9.67669 14.4697 9.53025C14.1767 9.23719 14.1767 8.76263 14.4697 8.46975L19.1895 3.75H16.5C16.0858 3.75 15.75 3.41419 15.75 3C15.75 2.58581 16.0858 2.25 16.5 2.25H21C21.4142 2.25 21.75 2.58581 21.75 3ZM9.53025 8.46975L4.8105 3.75H7.5C7.91419 3.75 8.25 3.41419 8.25 3C8.25 2.58581 7.91419 2.25 7.5 2.25H3C2.58581 2.25 2.25 2.58581 2.25 3V7.5C2.25 7.91419 2.58581 8.25 3 8.25C3.41419 8.25 3.75 7.91419 3.75 7.5V4.8105L8.46975 9.53025C8.61619 9.67669 8.80819 9.75 9 9.75C9.19181 9.75 9.38381 9.67669 9.53025 9.53025C9.82331 9.23737 9.82331 8.76263 9.53025 8.46975ZM21 15.75C20.5858 15.75 20.25 16.0858 20.25 16.5V19.1895L15.5303 14.4697C15.2372 14.1767 14.7626 14.1767 14.4697 14.4697C14.1769 14.7628 14.1767 15.2374 14.4697 15.5303L19.1895 20.25H16.5C16.0858 20.25 15.75 20.5858 15.75 21C15.75 21.4142 16.0858 21.75 16.5 21.75H21C21.4142 21.75 21.75 21.4142 21.75 21V16.5C21.75 16.0858 21.4142 15.75 21 15.75ZM9.53025 14.4697C9.23719 14.1767 8.76263 14.1767 8.46975 14.4697L3.75 19.1895V16.5C3.75 16.0858 3.41419 15.75 3 15.75C2.58581 15.75 2.25 16.0858 2.25 16.5V21C2.25 21.4142 2.58581 21.75 3 21.75H7.5C7.91419 21.75 8.25 21.4142 8.25 21C8.25 20.5858 7.91419 20.25 7.5 20.25H4.8105L9.53025 15.5303C9.82331 15.2374 9.82331 14.7626 9.53025 14.4697Z" fill="white"/>
</svg>
