<svg width="18" height="18" viewBox="0 0 18 18" fill="none" xmlns="http://www.w3.org/2000/svg">
<path d="M8.90194 8.70757C9.93294 8.70757 10.8254 8.32712 11.5552 7.57868C12.2849 6.82934 12.6546 5.9129 12.6546 4.85334C12.6546 3.79467 12.2849 2.87822 11.5552 2.12889C10.8254 1.37956 9.93294 1 8.90194 1C7.87007 1 6.97758 1.37956 6.24783 2.12889C5.51894 2.87822 5.14844 3.79467 5.14844 4.85334C5.14844 5.9129 5.51894 6.82934 6.24783 7.57868C6.97758 8.32712 7.87094 8.70757 8.90194 8.70757ZM6.89361 2.792C7.45369 2.21689 8.11073 1.93778 8.90194 1.93778C9.69315 1.93778 10.3493 2.21689 10.9094 2.792C11.4695 3.36711 11.7413 4.04089 11.7413 4.85334C11.7413 5.66578 11.4695 6.34045 10.9094 6.91556C10.3493 7.49068 9.69315 7.76979 8.90194 7.76979C8.11073 7.76979 7.45369 7.48979 6.89361 6.91556C6.33353 6.34045 6.06171 5.66578 6.06171 4.85334C6.06171 4.04089 6.33353 3.36711 6.89361 2.792Z" fill="#00BCE7"/>
<path d="M15.4689 13.3031C15.4473 12.9911 15.4049 12.6516 15.3426 12.2925C15.2794 11.9307 15.198 11.5885 15.1002 11.2756C14.9998 10.9529 14.863 10.6338 14.6933 10.328C14.5176 10.0107 14.3116 9.73425 14.0796 9.50669C13.8372 9.26847 13.5411 9.07736 13.1983 8.9378C12.8564 8.79914 12.4781 8.72891 12.073 8.72891C11.9137 8.72891 11.7596 8.79558 11.4627 8.99469C11.28 9.11647 11.0662 9.25869 10.8273 9.41514C10.623 9.54847 10.3468 9.6738 10.0049 9.78669C9.67162 9.8978 9.33401 9.9538 8.99986 9.9538C8.66572 9.9538 8.32725 9.8978 7.99397 9.78669C7.6529 9.6738 7.37589 9.54847 7.17246 9.41514C6.93613 9.25958 6.72231 9.11825 6.53619 8.99469C6.23927 8.79558 6.08605 8.72891 5.92677 8.72891C5.52164 8.72891 5.14335 8.79914 4.80141 8.9378C4.45861 9.07736 4.16256 9.26847 3.92017 9.50669C3.68817 9.73425 3.48215 10.0107 3.30642 10.328C3.13761 10.6338 2.99997 10.9529 2.89956 11.2756C2.8026 11.5885 2.72037 11.9307 2.65717 12.2925C2.59485 12.6507 2.55243 12.9911 2.53165 13.304C2.51088 13.6089 2.50049 13.9271 2.50049 14.248C2.50049 15.0836 2.75846 15.76 3.26833 16.2587C3.77214 16.7503 4.4387 17 5.24896 17H12.7516C13.5619 17 14.2276 16.7503 14.7314 16.2587C15.2413 15.76 15.5001 15.0836 15.5001 14.248C15.5001 13.9263 15.4897 13.608 15.4689 13.3031ZM14.1021 15.5796C13.7696 15.904 13.3273 16.0623 12.7516 16.0623H5.24896C4.67243 16.0623 4.23094 15.904 3.89853 15.5796C3.57218 15.2605 3.41289 14.8249 3.41289 14.248C3.41289 13.9485 3.42328 13.6525 3.44233 13.368C3.46051 13.0898 3.49946 12.7831 3.55659 12.4578C3.61286 12.136 3.68385 11.8347 3.76955 11.5618C3.85092 11.2996 3.96259 11.0409 4.10023 10.7911C4.23181 10.5529 4.38416 10.3485 4.55124 10.184C4.70792 10.0302 4.90529 9.90403 5.13729 9.8098C5.35284 9.72269 5.59436 9.67469 5.85665 9.66758C5.88868 9.68447 5.94582 9.71825 6.03758 9.77958C6.22542 9.9058 6.44184 10.0489 6.68163 10.2054C6.95085 10.3822 7.29798 10.5414 7.71349 10.6791C8.13767 10.8196 8.5705 10.8916 8.99986 10.8916C9.42923 10.8916 9.86206 10.8196 10.2862 10.6791C10.7018 10.5414 11.0489 10.3822 11.319 10.2054C11.5639 10.0445 11.7734 9.9058 11.9613 9.77958C12.0539 9.71825 12.111 9.68447 12.1431 9.66758C12.4054 9.67469 12.6469 9.72269 12.8624 9.8098C13.0944 9.90403 13.2918 10.0302 13.4485 10.184C13.6156 10.3485 13.7679 10.5529 13.8995 10.7911C14.038 11.0409 14.1488 11.3005 14.231 11.5618C14.3159 11.8347 14.3877 12.1369 14.444 12.4578C14.5003 12.784 14.5392 13.0907 14.5574 13.3689C14.5773 13.6516 14.5868 13.9476 14.5868 14.248C14.5868 14.8249 14.4284 15.2605 14.1021 15.5796Z" fill="#00BCE7"/>
</svg>
