<svg width="30" height="30" viewBox="0 0 30 30" fill="none" xmlns="http://www.w3.org/2000/svg">
<g clip-path="url(#clip0_501_1545)">
<path d="M5.56646 18.8848C4.92465 19.1387 4.37499 19.5813 3.99013 20.1543C3.60526 20.7272 3.40332 21.4035 3.41098 22.0937V28.0618C3.41155 28.5757 3.61592 29.0683 3.97924 29.4317C4.34257 29.795 4.83519 29.9994 5.34902 30H24.6511C25.1649 29.9994 25.6576 29.795 26.0209 29.4317C26.3843 29.0683 26.5887 28.5757 26.5893 28.0618V22.0935C26.5969 21.4034 26.3949 20.7271 26.01 20.1542C25.6251 19.5813 25.0755 19.1386 24.4337 18.8848L18.3155 16.3853L18.3253 14.8287C19.0044 14.3155 19.5553 13.6517 19.9346 12.8896C20.3139 12.1275 20.5113 11.2879 20.5114 10.4366V10.2628H21.1108C21.5391 10.2628 21.9528 10.1075 22.2753 9.82566C22.5978 9.54381 22.807 9.15456 22.8643 8.73013C22.9215 8.30569 22.8229 7.8749 22.5866 7.51769C22.3504 7.16048 21.9925 6.90109 21.5796 6.78768V6.57949C21.5796 4.8345 20.8864 3.16098 19.6525 1.92709C18.4186 0.693195 16.745 0 15.0001 0C13.2551 0 11.5815 0.693195 10.3477 1.92709C9.11376 3.16098 8.42057 4.8345 8.42057 6.57949V6.96527C8.00762 7.07874 7.64984 7.33813 7.41361 7.69534C7.17739 8.05255 7.07875 8.48332 7.13599 8.90773C7.19324 9.33214 7.40249 9.72138 7.72492 10.0032C8.04735 10.2851 8.46106 10.4404 8.88932 10.4404H9.48879C9.48937 11.2911 9.68706 12.1301 10.0663 12.8915C10.4456 13.653 10.9962 14.3162 11.6749 14.8291L11.6846 16.3856L5.56646 18.8848ZM24.0794 19.7526C24.5476 19.9379 24.9486 20.2608 25.2293 20.6788C25.5101 21.0968 25.6574 21.5902 25.6519 22.0937V28.0618C25.6515 28.3271 25.546 28.5815 25.3584 28.7691C25.1708 28.9567 24.9164 29.0622 24.6511 29.0625H22.0899V24.4596C22.0899 24.3352 22.0405 24.216 21.9526 24.1281C21.8647 24.0402 21.7455 23.9908 21.6212 23.9908C21.4968 23.9908 21.3776 24.0402 21.2897 24.1281C21.2018 24.216 21.1524 24.3352 21.1524 24.4596V29.0625H8.84772V24.4596C8.84772 24.3352 8.79833 24.216 8.71042 24.1281C8.62251 24.0402 8.50329 23.9908 8.37897 23.9908C8.25464 23.9908 8.13542 24.0402 8.04751 24.1281C7.9596 24.216 7.91022 24.3352 7.91022 24.4596V29.0625H5.34902C5.08374 29.0622 4.82941 28.9566 4.64182 28.769C4.45424 28.5814 4.3487 28.3271 4.34836 28.0618V22.0935C4.34277 21.59 4.4901 21.0967 4.77086 20.6787C5.05163 20.2607 5.45262 19.9377 5.92084 19.7525L12.0621 17.2437L14.6886 19.5797C14.7744 19.6561 14.8852 19.6982 15.0001 19.6982C15.1149 19.6982 15.2257 19.6561 15.3115 19.5797L17.938 17.2437L24.0794 19.7526ZM21.9426 8.49346C21.9424 8.71407 21.8547 8.92559 21.6987 9.08159C21.5427 9.23758 21.3312 9.3253 21.1106 9.32549H20.5114V7.66166H21.1108C21.3313 7.66191 21.5428 7.74962 21.6987 7.90556C21.8546 8.0615 21.9423 8.27293 21.9426 8.49346ZM15.0001 0.9375C16.4959 0.939206 17.93 1.53418 18.9877 2.59189C20.0454 3.64959 20.6403 5.08367 20.6421 6.57949V6.72416H19.6694C18.7692 6.47672 18.552 6.07107 18.2265 5.46334C18.1351 5.29277 18.0407 5.11641 17.9242 4.93014C17.8603 4.82789 17.7594 4.75421 17.6426 4.72442C17.5257 4.69463 17.4019 4.71102 17.2968 4.77018C13.4942 6.91119 13.1251 6.9109 9.58928 6.90275L9.35807 6.90229V6.57949C9.35977 5.08367 9.95474 3.64959 11.0125 2.59189C12.0702 1.53418 13.5042 0.939206 15.0001 0.9375ZM8.05752 8.67105C8.05771 8.45044 8.14543 8.23892 8.30142 8.08293C8.45742 7.92693 8.66894 7.83921 8.88955 7.83902C9.09897 7.83902 9.29807 7.83937 9.48897 7.83979V9.50268H8.88932C8.66882 9.50241 8.45743 9.41472 8.3015 9.25882C8.14557 9.10292 8.05783 8.89155 8.05752 8.67105ZM10.4262 10.4366V7.8409C13.1928 7.83311 14.0122 7.67391 17.3511 5.81461C17.3677 5.84523 17.384 5.87572 17.4002 5.90607C17.7667 6.59033 18.1456 7.29785 19.4904 7.64678C19.5178 7.65356 19.5457 7.65787 19.5739 7.65967V10.437C19.5739 11.6501 19.092 12.8134 18.2342 13.6712C17.3765 14.529 16.2131 15.0108 15.0001 15.0108C13.787 15.0108 12.6236 14.529 11.7659 13.6712C10.9081 12.8134 10.4262 11.6501 10.4262 10.437V10.4366ZM15.0001 15.9479C15.8255 15.9489 16.6405 15.7634 17.3841 15.4051L17.3774 16.4878L15.0001 18.6022L12.6227 16.4878L12.616 15.4051C13.3596 15.7634 14.1746 15.9489 15.0001 15.9479ZM11.8093 9.32191C11.78 9.37607 11.7404 9.42394 11.6926 9.46278C11.6448 9.50161 11.5899 9.53066 11.5309 9.54827C11.4719 9.56587 11.4101 9.57168 11.3488 9.56538C11.2876 9.55907 11.2282 9.54076 11.174 9.51149C11.1199 9.48223 11.072 9.44259 11.0332 9.39483C10.9943 9.34707 10.9653 9.29212 10.9477 9.23314C10.9301 9.17415 10.9243 9.11227 10.9306 9.05104C10.9369 8.9898 10.9552 8.93041 10.9845 8.87625C11.1115 8.64112 11.2998 8.44472 11.5294 8.30784C11.759 8.17096 12.0213 8.0987 12.2886 8.0987C12.5559 8.0987 12.8182 8.17096 13.0477 8.30784C13.2773 8.44472 13.4656 8.64112 13.5927 8.87625C13.6225 8.93045 13.6413 8.99001 13.648 9.0515C13.6547 9.113 13.6492 9.17521 13.6317 9.23456C13.6142 9.2939 13.5852 9.3492 13.5463 9.39727C13.5073 9.44534 13.4593 9.48522 13.4049 9.51463C13.3504 9.54404 13.2907 9.56238 13.2292 9.56861C13.1676 9.57483 13.1055 9.56881 13.0463 9.5509C12.9871 9.53298 12.932 9.50353 12.8842 9.46423C12.8364 9.42493 12.7969 9.37656 12.7679 9.32191C12.7212 9.23551 12.652 9.16334 12.5676 9.11304C12.4832 9.06275 12.3868 9.03619 12.2886 9.03619C12.1904 9.03619 12.094 9.06275 12.0096 9.11304C11.9252 9.16334 11.856 9.23551 11.8093 9.32191ZM16.4074 8.87625C16.5345 8.64112 16.7227 8.44472 16.9523 8.30784C17.1819 8.17096 17.4442 8.0987 17.7115 8.0987C17.9788 8.0987 18.2411 8.17096 18.4706 8.30784C18.7002 8.44472 18.8885 8.64112 19.0156 8.87625C19.0449 8.93041 19.0632 8.9898 19.0695 9.05104C19.0758 9.11227 19.07 9.17415 19.0524 9.23314C19.0348 9.29212 19.0057 9.34707 18.9669 9.39483C18.928 9.44259 18.8802 9.48223 18.826 9.51149C18.7719 9.54076 18.7125 9.55907 18.6512 9.56538C18.59 9.57168 18.5281 9.56587 18.4691 9.54827C18.4102 9.53066 18.3552 9.50161 18.3074 9.46278C18.2597 9.42394 18.22 9.37607 18.1908 9.32191C18.1441 9.23552 18.0748 9.16337 17.9905 9.11308C17.9061 9.0628 17.8097 9.03625 17.7115 9.03625C17.6133 9.03625 17.5169 9.0628 17.4325 9.11308C17.3481 9.16337 17.2789 9.23552 17.2322 9.32191C17.2029 9.37607 17.1633 9.42394 17.1155 9.46278C17.0678 9.50161 17.0128 9.53066 16.9538 9.54827C16.8948 9.56587 16.833 9.57168 16.7717 9.56538C16.7105 9.55907 16.6511 9.54076 16.5969 9.51149C16.5428 9.48223 16.4949 9.44259 16.4561 9.39483C16.4172 9.34707 16.3882 9.29212 16.3706 9.23314C16.353 9.17415 16.3472 9.11227 16.3535 9.05104C16.3598 8.9898 16.3781 8.93041 16.4074 8.87625ZM13.4526 11.6243C13.5596 11.561 13.6873 11.5427 13.8077 11.5736C13.9282 11.6045 14.0314 11.6819 14.0947 11.7889C14.2709 12.0864 14.6177 12.2712 15.0001 12.2712C15.3824 12.2712 15.7292 12.0864 15.9053 11.7889C15.9692 11.6831 16.0723 11.6068 16.1922 11.5766C16.3121 11.5464 16.439 11.5649 16.5454 11.6278C16.6517 11.6908 16.7289 11.7932 16.7602 11.9128C16.7914 12.0324 16.7741 12.1595 16.7121 12.2664C16.368 12.8476 15.712 13.2087 15.0001 13.2087C14.2881 13.2087 13.632 12.8476 13.288 12.2664C13.2248 12.1595 13.2066 12.0318 13.2374 11.9114C13.2683 11.791 13.3457 11.6879 13.4526 11.6245V11.6243ZM17.5128 20.9239C16.9866 21.1056 16.6302 21.5798 16.5829 22.162C16.4846 23.3682 17.9568 24.5135 18.5324 24.8531C18.6045 24.8956 18.6868 24.9181 18.7706 24.9181C18.8543 24.9181 18.9366 24.8956 19.0088 24.8531C19.5843 24.5132 21.0565 23.3682 20.9583 22.162C20.9109 21.5798 20.5546 21.1055 20.0283 20.9239C19.8196 20.8545 19.5978 20.8337 19.3798 20.8631C19.1618 20.8926 18.9534 20.9715 18.7706 21.0939C18.5877 20.9715 18.3794 20.8927 18.1613 20.8632C17.9433 20.8338 17.7215 20.8547 17.5128 20.9242V20.9239ZM18.7706 22.1711C18.8353 22.1711 18.8993 22.1577 18.9586 22.1317C19.0179 22.1058 19.0711 22.0678 19.115 22.0202C19.299 21.821 19.5262 21.7424 19.7227 21.8102C19.8943 21.8694 20.0069 22.0294 20.0239 22.238C20.0649 22.7398 19.3727 23.467 18.7706 23.891C18.1683 23.467 17.4764 22.7398 17.5172 22.238C17.5342 22.0293 17.6468 21.8693 17.8184 21.8102C17.8646 21.7943 17.9132 21.7863 17.9621 21.7864C18.1203 21.7864 18.2857 21.8684 18.4261 22.0202C18.47 22.0678 18.5232 22.1059 18.5825 22.1319C18.6418 22.1579 18.7058 22.1713 18.7706 22.1713V22.1711Z" fill="white" fill-opacity="0.6"/>
</g>
<defs>
<clipPath id="clip0_501_1545">
<rect width="30" height="30" fill="white"/>
</clipPath>
</defs>
</svg>
