<svg width="18" height="18" viewBox="0 0 18 18" fill="none" xmlns="http://www.w3.org/2000/svg">
<path d="M8.90194 8.70757C9.93294 8.70757 10.8254 8.32712 11.5552 7.57868C12.2849 6.82934 12.6546 5.9129 12.6546 4.85334C12.6546 3.79467 12.2849 2.87822 11.5552 2.12889C10.8254 1.37956 9.93294 1 8.90194 1C7.87007 1 6.97758 1.37956 6.24783 2.12889C5.51894 2.87822 5.14844 3.79467 5.14844 4.85334C5.14844 5.9129 5.51894 6.82934 6.24783 7.57868C6.97758 8.32712 7.87094 8.70757 8.90194 8.70757ZM6.89361 2.792C7.45369 2.21689 8.11073 1.93778 8.90194 1.93778C9.69315 1.93778 10.3493 2.21689 10.9094 2.792C11.4695 3.36711 11.7413 4.04089 11.7413 4.85334C11.7413 5.66578 11.4695 6.34045 10.9094 6.91556C10.3493 7.49068 9.69315 7.76979 8.90194 7.76979C8.11073 7.76979 7.45369 7.48979 6.89361 6.91556C6.33353 6.34045 6.06171 5.66578 6.06171 4.85334C6.06171 4.04089 6.33353 3.36711 6.89361 2.792Z" fill="#666666"/>
<path d="M15.4694 13.3031C15.4478 12.9911 15.4054 12.6516 15.3431 12.2925C15.2799 11.9307 15.1985 11.5885 15.1007 11.2756C15.0003 10.9529 14.8635 10.6338 14.6938 10.328C14.5181 10.0107 14.3121 9.73422 14.0801 9.50666C13.8377 9.26844 13.5416 9.07733 13.1988 8.93777C12.8569 8.79911 12.4786 8.72888 12.0735 8.72888C11.9142 8.72888 11.7601 8.79555 11.4632 8.99466C11.2805 9.11644 11.0667 9.25866 10.8278 9.41511C10.6235 9.54844 10.3473 9.67377 10.0054 9.78666C9.67211 9.89777 9.3345 9.95377 9.00035 9.95377C8.66621 9.95377 8.32774 9.89777 7.99446 9.78666C7.65339 9.67377 7.37638 9.54844 7.17295 9.41511C6.93662 9.25955 6.7228 9.11822 6.53668 8.99466C6.23976 8.79555 6.08654 8.72888 5.92726 8.72888C5.52213 8.72888 5.14384 8.79911 4.8019 8.93777C4.4591 9.07733 4.16305 9.26844 3.92066 9.50666C3.68866 9.73422 3.48264 10.0107 3.30691 10.328C3.1381 10.6338 3.00046 10.9529 2.90005 11.2756C2.80309 11.5885 2.72086 11.9307 2.65766 12.2925C2.59534 12.6507 2.55292 12.9911 2.53214 13.304C2.51137 13.6089 2.50098 13.9271 2.50098 14.248C2.50098 15.0836 2.75895 15.76 3.26882 16.2587C3.77263 16.7503 4.43919 17 5.24945 17H12.7521C13.5624 17 14.2281 16.7503 14.7319 16.2587C15.2418 15.76 15.5006 15.0836 15.5006 14.248C15.5006 13.9263 15.4902 13.608 15.4694 13.3031ZM14.1026 15.5796C13.7701 15.904 13.3278 16.0623 12.7521 16.0623H5.24945C4.67292 16.0623 4.23143 15.904 3.89902 15.5796C3.57267 15.2605 3.41338 14.8249 3.41338 14.248C3.41338 13.9485 3.42377 13.6525 3.44282 13.368C3.461 13.0898 3.49995 12.7831 3.55708 12.4578C3.61335 12.136 3.68434 11.8347 3.77004 11.5618C3.85141 11.2996 3.96308 11.0409 4.10072 10.7911C4.2323 10.5529 4.38465 10.3485 4.55173 10.184C4.70841 10.0302 4.90578 9.904 5.13778 9.80977C5.35333 9.72266 5.59485 9.67466 5.85714 9.66755C5.88917 9.68444 5.94631 9.71822 6.03807 9.77955C6.22591 9.90577 6.44233 10.0489 6.68212 10.2054C6.95134 10.3822 7.29847 10.5414 7.71398 10.6791C8.13816 10.8196 8.57099 10.8916 9.00035 10.8916C9.42972 10.8916 9.86255 10.8196 10.2867 10.6791C10.7023 10.5414 11.0494 10.3822 11.3195 10.2054C11.5644 10.0445 11.7739 9.90577 11.9618 9.77955C12.0544 9.71822 12.1115 9.68444 12.1436 9.66755C12.4059 9.67466 12.6474 9.72266 12.8629 9.80977C13.0949 9.904 13.2923 10.0302 13.449 10.184C13.6161 10.3485 13.7684 10.5529 13.9 10.7911C14.0385 11.0409 14.1493 11.3005 14.2315 11.5618C14.3164 11.8347 14.3882 12.1369 14.4445 12.4578C14.5008 12.784 14.5397 13.0907 14.5579 13.3689C14.5778 13.6516 14.5873 13.9476 14.5873 14.248C14.5873 14.8249 14.4289 15.2605 14.1026 15.5796Z" fill="#666666"/>
</svg>
