<?xml version="1.0" encoding="UTF-8"?>
<!DOCTYPE svg  PUBLIC '-//W3C//DTD SVG 1.1//EN'  'http://www.w3.org/Graphics/SVG/1.1/DTD/svg11.dtd'>
<svg clip-rule="evenodd" fill-rule="evenodd" stroke-linejoin="round" stroke-miterlimit="1.4142" version="1.1" viewBox="0 0 18 18" xml:space="preserve" xmlns="http://www.w3.org/2000/svg">
    <g transform="matrix(.86566 0 0 .88889 1.2218 1)" fill="#fff" fill-rule="nonzero">
        <path d="m8.872 8.671c1.191 0 2.222-0.428 3.065-1.27 0.843-0.843 1.27-1.874 1.27-3.066 0-1.191-0.427-2.222-1.27-3.065s-1.874-1.27-3.065-1.27c-1.192 0-2.223 0.427-3.066 1.27-0.842 0.843-1.27 1.874-1.27 3.065 0 1.192 0.428 2.223 1.27 3.066 0.843 0.842 1.875 1.27 3.066 1.27zm-2.32-6.655c0.647-0.647 1.406-0.961 2.32-0.961s1.672 0.314 2.319 0.961 0.961 1.405 0.961 2.319-0.314 1.673-0.961 2.32-1.405 0.961-2.319 0.961-1.673-0.315-2.32-0.961c-0.647-0.647-0.961-1.406-0.961-2.32s0.314-1.672 0.961-2.319z"/>
        <path d="m16.458 13.841c-0.025-0.351-0.074-0.733-0.146-1.137-0.073-0.407-0.167-0.792-0.28-1.144-0.116-0.363-0.274-0.722-0.47-1.066-0.203-0.357-0.441-0.668-0.709-0.924-0.28-0.268-0.622-0.483-1.018-0.64-0.395-0.156-0.832-0.235-1.3-0.235-0.184 0-0.362 0.075-0.705 0.299-0.211 0.137-0.458 0.297-0.734 0.473-0.236 0.15-0.555 0.291-0.95 0.418-0.385 0.125-0.775 0.188-1.161 0.188s-0.777-0.063-1.162-0.188c-0.394-0.127-0.714-0.268-0.949-0.418-0.273-0.175-0.52-0.334-0.735-0.473-0.343-0.224-0.52-0.299-0.704-0.299-0.468 0-0.905 0.079-1.3 0.235-0.396 0.157-0.738 0.372-1.018 0.64-0.268 0.256-0.506 0.567-0.709 0.924-0.195 0.344-0.354 0.703-0.47 1.066-0.112 0.352-0.207 0.737-0.28 1.144-0.072 0.403-0.121 0.786-0.145 1.138-0.024 0.343-0.036 0.701-0.036 1.062 0 0.94 0.298 1.701 0.887 2.262 0.582 0.553 1.352 0.834 2.288 0.834h8.667c0.936 0 1.705-0.281 2.287-0.834 0.589-0.561 0.888-1.322 0.888-2.262 0-0.362-0.012-0.72-0.036-1.063zm-1.579 2.561c-0.384 0.365-0.895 0.543-1.56 0.543h-8.667c-0.666 0-1.176-0.178-1.56-0.543-0.377-0.359-0.561-0.849-0.561-1.498 0-0.337 0.012-0.67 0.034-0.99 0.021-0.313 0.066-0.658 0.132-1.024 0.065-0.362 0.147-0.701 0.246-1.008 0.094-0.295 0.223-0.586 0.382-0.867 0.152-0.268 0.328-0.498 0.521-0.683 0.181-0.173 0.409-0.315 0.677-0.421 0.249-0.098 0.528-0.152 0.831-0.16 0.037 0.019 0.103 0.057 0.209 0.126 0.217 0.142 0.467 0.303 0.744 0.479 0.311 0.199 0.712 0.378 1.192 0.533 0.49 0.158 0.99 0.239 1.486 0.239s0.996-0.081 1.486-0.239c0.48-0.155 0.881-0.334 1.193-0.533 0.283-0.181 0.525-0.337 0.742-0.479 0.107-0.069 0.173-0.107 0.21-0.126 0.303 8e-3 0.582 0.062 0.831 0.16 0.268 0.106 0.496 0.248 0.677 0.421 0.193 0.185 0.369 0.415 0.521 0.683 0.16 0.281 0.288 0.573 0.383 0.867 0.098 0.307 0.181 0.647 0.246 1.008 0.065 0.367 0.11 0.712 0.131 1.025 0.023 0.318 0.034 0.651 0.034 0.989 0 0.649-0.183 1.139-0.56 1.498z"/>
    </g>
</svg>
