<svg width="30" height="30" viewBox="0 0 30 30" fill="none" xmlns="http://www.w3.org/2000/svg">
<g clip-path="url(#clip0_465_991)">
<path d="M29.6864 11.0282L22.1862 3.52805C21.7677 3.10969 21.0893 3.10981 20.671 3.5283C20.4701 3.7292 20.3573 4.00154 20.3573 4.28562V7.49996H12.8571C12.2653 7.49996 11.7856 7.97966 11.7856 8.57142C11.7856 9.16319 12.2653 9.64289 12.8571 9.64289H21.4287C22.0205 9.64289 22.5002 9.16319 22.5002 8.57142V6.87203L27.4139 11.7857L22.5002 16.6994V15C22.5002 14.4083 22.0205 13.9286 21.4287 13.9286H9.64278V10.7142C9.64265 10.1225 9.16282 9.64289 8.57112 9.64301C8.2871 9.64308 8.0147 9.75589 7.81381 9.95673L0.313727 17.4569C-0.104576 17.8753 -0.104576 18.5535 0.313727 18.9719L7.81387 26.472C8.01476 26.673 8.28723 26.7859 8.57137 26.786C8.71219 26.7864 8.85175 26.7587 8.9817 26.7046C9.38199 26.5386 9.6429 26.1479 9.64278 25.7145V22.5002H17.1429C17.7347 22.5002 18.2144 22.0205 18.2144 21.4287C18.2144 20.8369 17.7347 20.3572 17.1429 20.3572H8.57137C7.97961 20.3572 7.49991 20.8369 7.49991 21.4287V23.128L2.58624 18.2144L7.49991 13.3007V15C7.49991 15.5918 7.97961 16.0715 8.57137 16.0715H20.3573V19.2858C20.3574 19.8776 20.8372 20.3572 21.4289 20.3571C21.7129 20.357 21.9853 20.2442 22.1862 20.0433L29.6864 12.5432C30.1046 12.1248 30.1046 11.4466 29.6864 11.0282Z" fill="white" fill-opacity="0.6"/>
</g>
<defs>
<clipPath id="clip0_465_991">
<rect width="30" height="30" fill="white"/>
</clipPath>
</defs>
</svg>
