<svg width="26" height="26" viewBox="0 0 26 26" fill="none" xmlns="http://www.w3.org/2000/svg">
<g clip-path="url(#clip0_490_182)">
<path d="M11 14.325C10.1661 14.325 9.48745 13.6464 9.48745 12.8125C9.48745 11.9786 10.1661 11.3 11 11.3C11.8339 11.3 12.5125 11.9786 12.5125 12.8125C12.5125 13.1853 12.8147 13.4875 13.1875 13.4875C13.5603 13.4875 13.8625 13.1853 13.8625 12.8125C13.8625 11.4665 12.9285 10.3356 11.675 10.0313V9.37495C11.675 9.00218 11.3728 8.69995 11 8.69995C10.6272 8.69995 10.325 9.00218 10.325 9.37495V10.0313C9.07143 10.3356 8.13745 11.4665 8.13745 12.8125C8.13745 14.3909 9.42152 15.675 11 15.675C11.8339 15.675 12.5125 16.3536 12.5125 17.1875C12.5125 18.0214 11.8339 18.7 11 18.7C10.1661 18.7 9.48745 18.0214 9.48745 17.1875C9.48745 16.8147 9.18526 16.5125 8.81245 16.5125C8.43964 16.5125 8.13745 16.8147 8.13745 17.1875C8.13745 18.5335 9.07143 19.6644 10.325 19.9687V20.625C10.325 20.9978 10.6272 21.3 11 21.3C11.3728 21.3 11.675 20.9978 11.675 20.625V19.9687C12.9285 19.6644 13.8625 18.5335 13.8625 17.1875C13.8625 15.6091 12.5784 14.325 11 14.325Z" fill="#9966CC" stroke="#9966CC" stroke-width="0.1"/>
<path fill-rule="evenodd" clip-rule="evenodd" d="M13.5 5.31326C12.6931 5.10651 11.8548 5 11 5C8.32891 5 5.81762 6.04012 3.92891 7.92891C2.0402 9.8177 1 12.3289 1 15C1 17.6711 2.04016 20.1823 3.92891 22.0711C5.81766 23.9598 8.32891 25 11 25C13.6711 25 16.1824 23.9599 18.0711 22.0711C19.9598 20.1823 21 17.6711 21 15C21 14.1452 20.8935 13.3069 20.6867 12.5H19.3862C19.6229 13.2924 19.75 14.1316 19.75 15C19.75 19.8248 15.8248 23.75 11 23.75C6.17523 23.75 2.25 19.8248 2.25 15C2.25 10.1752 6.17523 6.25 11 6.25C11.8684 6.25 12.7076 6.37715 13.5 6.6138V5.31326Z" fill="#9966CC"/>
<mask id="mask0_490_182" style="mask-type:luminance" maskUnits="userSpaceOnUse" x="0" y="4" width="22" height="22">
<path d="M22 4H0V26H22V4Z" fill="white"/>
<path fill-rule="evenodd" clip-rule="evenodd" d="M13.5 5.31326C12.6931 5.10651 11.8548 5 11 5C8.32891 5 5.81762 6.04012 3.92891 7.92891C2.0402 9.8177 1 12.3289 1 15C1 17.6711 2.04016 20.1823 3.92891 22.0711C5.81766 23.9598 8.32891 25 11 25C13.6711 25 16.1824 23.9599 18.0711 22.0711C19.9598 20.1823 21 17.6711 21 15C21 14.1452 20.8935 13.3069 20.6867 12.5H19.3862C19.6229 13.2924 19.75 14.1316 19.75 15C19.75 19.8248 15.8248 23.75 11 23.75C6.17523 23.75 2.25 19.8248 2.25 15C2.25 10.1752 6.17523 6.25 11 6.25C11.8684 6.25 12.7076 6.37715 13.5 6.6138V5.31326Z" fill="#9966CC"/>
</mask>
<g mask="url(#mask0_490_182)">
<path d="M13.5 5.31316H13.6V5.23556L13.5248 5.21629L13.5 5.31316ZM20.6867 12.4999L20.7836 12.4751L20.7643 12.3999H20.6867V12.4999ZM19.3862 12.4999V12.3999H19.252L19.2904 12.5285L19.3862 12.4999ZM13.5 6.6137L13.4714 6.70952L13.6 6.74793V6.6137H13.5ZM11 5.0999C11.8464 5.0999 12.6765 5.20537 13.4752 5.41003L13.5248 5.21629C12.7098 5.00745 11.8631 4.8999 11 4.8999V5.0999ZM3.99964 7.99952C5.86959 6.12948 8.35545 5.0999 11 5.0999V4.8999C8.30241 4.8999 5.76568 5.95055 3.85821 7.8581L3.99964 7.99952ZM1.10002 14.9999C1.10002 12.3553 2.12968 9.86955 3.99964 7.99952L3.85821 7.8581C1.95075 9.76564 0.900024 12.3023 0.900024 14.9999H1.10002ZM3.99964 22.0003C2.12964 20.1303 1.10002 17.6445 1.10002 14.9999H0.900024C0.900024 17.6975 1.95071 20.2342 3.85822 22.1417L3.99964 22.0003ZM11 24.8999C8.35545 24.8999 5.86963 23.8703 3.99964 22.0003L3.85822 22.1417C5.76572 24.0492 8.30241 25.0999 11 25.0999V24.8999ZM18.0004 22.0003C16.1304 23.8703 13.6446 24.8999 11 24.8999V25.0999C13.6976 25.0999 16.2343 24.0492 18.1418 22.1417L18.0004 22.0003ZM20.9 14.9999C20.9 17.6445 19.8703 20.1302 18.0004 22.0003L18.1418 22.1417C20.0493 20.2342 21.1 17.6975 21.1 14.9999H20.9ZM20.5899 12.5247C20.7945 13.3234 20.9 14.1535 20.9 14.9999H21.1C21.1 14.1368 20.9924 13.2901 20.7836 12.4751L20.5899 12.5247ZM19.3862 12.5999H20.6867V12.3999H19.3862V12.5999ZM19.85 14.9999C19.85 14.1217 19.7214 13.2729 19.482 12.4713L19.2904 12.5285C19.5243 13.3118 19.65 14.1414 19.65 14.9999H19.85ZM11 23.8499C15.88 23.8499 19.85 19.8799 19.85 14.9999H19.65C19.65 19.7694 15.7695 23.6499 11 23.6499V23.8499ZM2.15002 14.9999C2.15002 19.8799 6.12003 23.8499 11 23.8499V23.6499C6.23048 23.6499 2.35002 19.7694 2.35002 14.9999H2.15002ZM11 6.1499C6.12003 6.1499 2.15002 10.1199 2.15002 14.9999H2.35002C2.35002 10.2304 6.23048 6.3499 11 6.3499V6.1499ZM13.5286 6.51788C12.727 6.27849 11.8782 6.1499 11 6.1499V6.3499C11.8585 6.3499 12.6881 6.4756 13.4714 6.70952L13.5286 6.51788ZM13.4 5.31316V6.6137H13.6V5.31316H13.4Z" fill="#9966CC"/>
</g>
<path d="M22.3353 9.00253L20.0878 6.75376L17.839 9.00253C17.6547 9.18682 17.356 9.18682 17.1717 9.00253C16.9874 8.81824 16.9874 8.5195 17.1717 8.33521L19.4205 6.08643L17.1717 3.83765C16.9874 3.65336 16.9874 3.35595 17.1717 3.17166C17.356 2.98737 17.6547 2.98737 17.839 3.17165L20.0878 5.41912L22.3353 3.17166C22.5195 2.98737 22.8183 2.98737 23.0026 3.17166C23.1867 3.35582 23.187 3.65457 23.0026 3.83765L20.7538 6.08643L22.3353 9.00253ZM22.3353 9.00253C22.4274 9.09468 22.5479 9.14075 22.6696 9.14075C23.0859 9.14075 23.3 8.63268 23.0026 8.33521L20.7538 6.08643L22.3353 9.00253ZM15.4225 11.223H24.7517C25.0131 11.223 25.2243 11.012 25.2243 10.7517V1.42117C25.2243 1.16092 25.0131 0.949951 24.7517 0.949951H15.4225C15.1612 0.949951 14.95 1.16092 14.95 1.42117V10.7517C14.95 11.012 15.1612 11.223 15.4225 11.223ZM24.2805 1.89371V10.2805H15.8938V1.89371H24.2805Z" fill="#9966CC"/>
<path d="M22.3353 9.00253L20.0878 6.75376L17.839 9.00253C17.6547 9.18682 17.356 9.18682 17.1717 9.00253C16.9874 8.81824 16.9874 8.5195 17.1717 8.33521L19.4205 6.08643L17.1717 3.83765C16.9874 3.65336 16.9874 3.35595 17.1717 3.17166C17.356 2.98737 17.6547 2.98737 17.839 3.17165L20.0878 5.41912L22.3353 3.17166C22.5195 2.98737 22.8183 2.98737 23.0026 3.17166C23.1867 3.35582 23.187 3.65457 23.0026 3.83765L20.7538 6.08643M22.3353 9.00253C22.4274 9.09468 22.5479 9.14075 22.6696 9.14075C23.0859 9.14075 23.3 8.63268 23.0026 8.33521L20.7538 6.08643M22.3353 9.00253L20.7538 6.08643M15.4225 11.223H24.7517C25.0131 11.223 25.2243 11.012 25.2243 10.7517V1.42117C25.2243 1.16092 25.0131 0.949951 24.7517 0.949951H15.4225C15.1612 0.949951 14.95 1.16092 14.95 1.42117V10.7517C14.95 11.012 15.1612 11.223 15.4225 11.223ZM24.2805 1.89371V10.2805H15.8938V1.89371H24.2805Z" stroke="#9966CC" stroke-width="0.1"/>
</g>
<defs>
<clipPath id="clip0_490_182">
<rect width="26" height="26" fill="white"/>
</clipPath>
</defs>
</svg>
