<svg width="100" height="100" viewBox="0 0 100 100" fill="none" xmlns="http://www.w3.org/2000/svg">
<circle cx="50" cy="50" r="40" fill="#F7AD00"/>
<circle cx="50" cy="50" r="49" stroke="#F7AD00" stroke-width="2"/>
<mask id="mask0_1826_6312" style="mask-type:alpha" maskUnits="userSpaceOnUse" x="30" y="30" width="40" height="40">
<rect x="30" y="30" width="40" height="40" fill="#D9D9D9"/>
</mask>
<g mask="url(#mask0_1826_6312)">
<path d="M50.0001 65C49.0834 65 48.2987 64.6736 47.6459 64.0208C46.9931 63.3681 46.6667 62.5833 46.6667 61.6667C46.6667 60.75 46.9931 59.9653 47.6459 59.3125C48.2987 58.6597 49.0834 58.3333 50.0001 58.3333C50.9167 58.3333 51.7015 58.6597 52.3542 59.3125C53.007 59.9653 53.3334 60.75 53.3334 61.6667C53.3334 62.5833 53.007 63.3681 52.3542 64.0208C51.7015 64.6736 50.9167 65 50.0001 65ZM46.6667 55V35H53.3334V55H46.6667Z" fill="white"/>
</g>
</svg>
