<svg width="14" height="14" viewBox="0 0 14 14" fill="none" xmlns="http://www.w3.org/2000/svg">
<mask id="mask0_764_1655" style="mask-type:alpha" maskUnits="userSpaceOnUse" x="0" y="0" width="14" height="14">
<rect width="14" height="14" fill="#D9D9D9"/>
</mask>
<g mask="url(#mask0_764_1655)">
<path d="M1.4 12.3667C1.015 12.3667 0.685533 12.2297 0.4116 11.9558C0.1372 11.6814 0 11.3517 0 10.9667V2.56667C0 2.18167 0.1372 1.8522 0.4116 1.57827C0.685533 1.30387 1.015 1.16667 1.4 1.16667H12.6C12.985 1.16667 13.3147 1.30387 13.5891 1.57827C13.863 1.8522 14 2.18167 14 2.56667V10.9667C14 11.3517 13.863 11.6814 13.5891 11.9558C13.3147 12.2297 12.985 12.3667 12.6 12.3667H1.4ZM7 7.46667L1.4 3.96667V10.9667H12.6V3.96667L7 7.46667ZM7 6.06667L12.6 2.56667H1.4L7 6.06667ZM1.4 3.96667V2.56667V10.9667V3.96667Z" fill="white"/>
</g>
</svg>
