<svg width="24" height="24" viewBox="0 0 24 24" fill="none" xmlns="http://www.w3.org/2000/svg">
<g clip-path="url(#clip0_652_944)">
<path d="M22.6372 10.225C22.2668 9.95267 21.8066 9.61248 21.746 9.38709C21.6803 9.14081 21.9151 8.59822 22.105 8.16309C22.4296 7.41595 22.7655 6.64273 22.393 5.99786C22.0163 5.34463 21.17 5.24969 20.353 5.15788C19.8866 5.10569 19.3064 5.04102 19.1332 4.86675C18.9589 4.69355 18.8942 4.11334 18.842 3.6469C18.7502 2.82986 18.6552 1.98465 18.002 1.60689C17.4344 1.27717 16.5933 1.56517 15.8368 1.89489C15.4184 2.07646 14.9822 2.24966 14.6118 2.25386C14.3864 2.19438 14.0473 1.73318 13.7739 1.36272C13.3033 0.724157 12.7701 0 12 0C11.2309 0 10.6967 0.724157 10.226 1.36174C9.95267 1.73216 9.61351 2.19341 9.29421 2.26433C9.01349 2.26433 8.58149 2.0765 8.16309 1.89494C7.4045 1.56522 6.56241 1.28035 5.99894 1.60694C5.34468 1.98469 5.24974 2.82991 5.15788 3.64695C5.10676 4.11339 5.04102 4.69252 4.86777 4.8668C4.6935 5.04107 4.11334 5.10574 3.64793 5.15793C2.82986 5.24974 1.98357 5.34575 1.60689 5.99791C1.23437 6.64175 1.57035 7.41497 1.89489 8.16314C2.08482 8.59827 2.32063 9.14086 2.25489 9.38714C2.19438 9.61253 1.73313 9.95272 1.36374 10.2251C0.724157 10.6957 0 11.2299 0 12C0 12.7701 0.724157 13.3043 1.36277 13.7749C1.73318 14.0473 2.19336 14.3875 2.25391 14.6129C2.31965 14.8591 2.08487 15.4017 1.89494 15.8369C1.5704 16.584 1.23442 17.3572 1.60694 18.0021C1.98362 18.6553 2.82991 18.7503 3.64695 18.8421C4.11339 18.8943 4.69355 18.9589 4.8668 19.1332C5.04107 19.3064 5.10574 19.8866 5.15793 20.353C5.24974 21.1701 5.34473 22.0153 5.99791 22.3931C6.56349 22.7218 7.4045 22.4348 8.16314 22.1051C8.58159 21.9235 9.00939 21.7398 9.38817 21.7461C9.61356 21.8056 9.95267 22.2668 10.2261 22.6372C10.6967 23.2758 11.2299 24 12 24C12.7691 24 13.3033 23.2758 13.7729 22.6383C14.0463 22.2678 14.3854 21.8066 14.7047 21.7357C14.9865 21.7357 15.4185 21.9235 15.8358 22.1051C16.5955 22.4359 17.4365 22.7207 18 22.3941C18.6542 22.0163 18.7492 21.1711 18.841 20.353C18.8922 19.8866 18.9579 19.3075 19.1312 19.1332C19.3054 18.9589 19.8856 18.8943 20.351 18.8421C21.1691 18.7503 22.0154 18.6542 22.392 18.0021C22.7656 17.3582 22.4296 16.585 22.104 15.8369C21.9141 15.4017 21.6793 14.8602 21.7451 14.6129C21.8056 14.3875 22.2668 14.0473 22.6362 13.7749C23.2758 13.3043 24 12.7701 24 12C24 11.2299 23.2758 10.6957 22.6372 10.225ZM22.0195 12.9328C21.4654 13.3408 20.8925 13.7624 20.7381 14.3405C20.5784 14.9395 20.8685 15.6062 21.1492 16.2511C21.3287 16.6643 21.6 17.2883 21.4914 17.4772C21.3777 17.6744 20.6922 17.7517 20.2372 17.8028C19.5443 17.881 18.8274 17.9614 18.3955 18.3934C17.9634 18.8254 17.8831 19.5423 17.8059 20.2351C17.7548 20.689 17.6776 21.3756 17.4793 21.4894C17.449 21.5071 17.3989 21.5113 17.3625 21.5113C17.0911 21.5113 16.6654 21.3256 16.2533 21.1471C15.6063 20.8664 14.8988 20.5868 14.3437 20.7371C13.7646 20.8915 13.343 21.4643 12.934 22.0184C12.6585 22.392 12.2421 22.9565 12.0001 22.9565C11.758 22.9565 11.3406 22.392 11.0662 22.0184C10.6582 21.4654 10.2366 20.8925 9.65748 20.7381C9.54376 20.7078 9.42167 20.6922 9.29333 20.6922C8.79559 20.6922 8.26239 20.9238 7.74689 21.1492C7.33578 21.3276 6.91004 21.5134 6.63769 21.5134C6.60115 21.5134 6.55107 21.5092 6.52084 21.4914C6.32259 21.3766 6.24639 20.6911 6.19527 20.2372C6.11701 19.5443 6.03665 18.8274 5.60465 18.3954C5.17368 17.9634 4.45578 17.8831 3.76293 17.8048C3.31004 17.7537 2.62345 17.6765 2.50973 17.4793C2.40016 17.2914 2.67251 16.6664 2.85197 16.2532C3.13268 15.6083 3.42274 14.9415 3.26308 14.3426C3.10759 13.7645 2.53472 13.3429 1.98171 12.9349C1.60816 12.6584 1.04361 12.242 1.04361 11.9999C1.04361 11.7578 1.60811 11.3415 1.98171 11.065C2.5358 10.657 3.10867 10.2354 3.26308 9.65729C3.42274 9.05835 3.13263 8.39156 2.85197 7.7467C2.67354 7.33348 2.40119 6.7095 2.50973 6.52059C2.62453 6.32338 3.31009 6.24614 3.764 6.19606C4.45686 6.11779 5.17373 6.03743 5.60572 5.60543C6.03772 5.17343 6.11809 4.45656 6.19635 3.76371C6.24644 3.3098 6.32367 2.62423 6.52191 2.50943C6.55219 2.49168 6.60228 2.48752 6.63877 2.48752C6.91009 2.48752 7.33583 2.67324 7.74694 2.85275C8.39391 3.13347 9.10032 3.41413 9.6565 3.26284C10.2356 3.10842 10.6572 2.53555 11.0662 1.98147C11.3417 1.60792 11.7581 1.04336 12.0001 1.04336C12.2422 1.04336 12.6596 1.60787 12.9351 1.98039C13.3431 2.53345 13.7647 3.10632 14.3438 3.26074C14.8947 3.40787 15.6064 3.13239 16.2534 2.85065C16.6645 2.67222 17.0902 2.48649 17.3626 2.48649C17.3991 2.48649 17.4492 2.49065 17.4794 2.50841C17.6777 2.6232 17.7539 3.30877 17.805 3.76268C17.8832 4.45553 17.9636 5.1724 18.3956 5.6044C18.8266 6.0364 19.5445 6.11677 20.2373 6.19503C20.6902 6.24614 21.3768 6.32338 21.4905 6.52059C21.6001 6.70842 21.3277 7.33348 21.1483 7.7467C20.8676 8.39156 20.5775 9.05835 20.7372 9.65729C20.8927 10.2354 21.4655 10.6569 22.0185 11.065C22.3921 11.3415 22.9566 11.7578 22.9566 11.9999C22.9566 12.242 22.392 12.6584 22.0195 12.9328Z" fill="white"/>
<path d="M8.86953 9.39128C8.58153 9.39128 8.34778 9.62504 8.34778 9.91304V12.5217L6.15648 9.59999C6.02187 9.42053 5.78606 9.34643 5.57422 9.41843C5.36135 9.4894 5.21735 9.68867 5.21735 9.91304V14.0869C5.21735 14.3749 5.4511 14.6087 5.7391 14.6087C6.0271 14.6087 6.26086 14.3749 6.26086 14.0869V11.4783L8.45216 14.4C8.55233 14.5336 8.70885 14.6087 8.86953 14.6087C8.92485 14.6087 8.98013 14.6003 9.03442 14.5815C9.24729 14.5106 9.39129 14.3113 9.39129 14.0869V9.91304C9.39129 9.62504 9.15753 9.39128 8.86953 9.39128Z" fill="white"/>
<path d="M13.0435 13.5652H11.4783V10.4348H13.0435C13.3315 10.4348 13.5652 10.201 13.5652 9.913C13.5652 9.625 13.3315 9.3913 13.0435 9.3913H10.9565C10.6685 9.3913 10.4348 9.62505 10.4348 9.91305V14.0869C10.4348 14.3749 10.6685 14.6087 10.9565 14.6087H13.0435C13.3315 14.6087 13.5652 14.3749 13.5652 14.0869C13.5652 13.7989 13.3315 13.5652 13.0435 13.5652Z" fill="white"/>
<path d="M13.0435 11.4783H10.9565C10.6685 11.4783 10.4348 11.712 10.4348 12C10.4348 12.288 10.6685 12.5217 10.9565 12.5217H13.0435C13.3315 12.5217 13.5652 12.288 13.5652 12C13.5652 11.712 13.3315 11.4783 13.0435 11.4783Z" fill="white"/>
<path d="M19.4295 9.40695C19.1478 9.33706 18.8661 9.5061 18.7972 9.78676L18.1889 12.2222L17.712 10.7916C17.5701 10.3659 16.8647 10.3659 16.7218 10.7916L16.2449 12.2222L15.6366 9.78676C15.5667 9.50605 15.2787 9.33598 15.0042 9.40695C14.7246 9.47685 14.5556 9.75967 14.6244 10.0393L15.6679 14.2132C15.7242 14.4376 15.9225 14.5993 16.1541 14.6076C16.4161 14.618 16.5966 14.4709 16.6696 14.2518L17.2175 12.6062L17.7653 14.2518C17.8373 14.4657 18.0366 14.6087 18.2609 14.6087C18.2672 14.6087 18.2745 14.6087 18.2797 14.6076C18.5114 14.5993 18.7096 14.4386 18.7659 14.2132L19.8094 10.0393C19.8793 9.75967 19.7102 9.47685 19.4295 9.40695Z" fill="white"/>
</g>
<defs>
<clipPath id="clip0_652_944">
<rect width="24" height="24" fill="white"/>
</clipPath>
</defs>
</svg>
