<?xml version="1.0" encoding="UTF-8"?>
<!DOCTYPE svg  PUBLIC '-//W3C//DTD SVG 1.1//EN'  'http://www.w3.org/Graphics/SVG/1.1/DTD/svg11.dtd'>
<svg clip-rule="evenodd" fill-rule="evenodd" stroke-linejoin="round" stroke-miterlimit="1.4142" version="1.1" viewBox="0 0 24 24" xml:space="preserve" xmlns="http://www.w3.org/2000/svg">
    
        <g fill="#213f99" fill-rule="nonzero">
            <path d="m22.637 10.225c-0.37-0.272-0.83-0.613-0.891-0.838-0.066-0.246 0.169-0.789 0.359-1.224 0.325-0.747 0.661-1.52 0.288-2.165-0.377-0.653-1.223-0.748-2.04-0.84-0.466-0.052-1.047-0.117-1.22-0.291-0.174-0.173-0.239-0.754-0.291-1.22-0.092-0.817-0.187-1.662-0.84-2.04-0.568-0.33-1.409-0.042-2.165 0.288-0.419 0.181-0.855 0.355-1.225 0.359-0.226-0.06-0.565-0.521-0.838-0.891-0.471-0.639-1.004-1.363-1.774-1.363-0.769 0-1.303 0.724-1.774 1.362-0.273 0.37-0.612 0.831-0.932 0.902-0.281 0-0.713-0.188-1.131-0.369-0.759-0.33-1.601-0.615-2.164-0.288-0.654 0.378-0.749 1.223-0.841 2.04-0.051 0.466-0.117 1.046-0.29 1.22-0.174 0.174-0.755 0.239-1.22 0.291-0.818 0.092-1.664 0.188-2.041 0.84-0.373 0.644-0.037 1.417 0.288 2.165 0.19 0.435 0.426 0.978 0.36 1.224-0.061 0.226-0.522 0.566-0.891 0.838-0.64 0.471-1.364 1.005-1.364 1.775s0.724 1.304 1.363 1.775c0.37 0.272 0.83 0.612 0.891 0.838 0.066 0.246-0.169 0.789-0.359 1.224-0.325 0.747-0.661 1.52-0.288 2.165 0.377 0.653 1.223 0.748 2.04 0.84 0.466 0.052 1.047 0.117 1.22 0.291 0.174 0.173 0.239 0.754 0.291 1.22 0.092 0.817 0.187 1.662 0.84 2.04 0.565 0.329 1.406 0.042 2.165-0.288 0.419-0.181 0.846-0.365 1.225-0.359 0.226 0.06 0.565 0.521 0.838 0.891 0.471 0.639 1.004 1.363 1.774 1.363 0.769 0 1.303-0.724 1.773-1.362 0.273-0.37 0.612-0.831 0.932-0.902 0.282 0 0.714 0.188 1.131 0.369 0.76 0.331 1.601 0.616 2.164 0.289 0.654-0.378 0.749-1.223 0.841-2.041 0.051-0.466 0.117-1.045 0.29-1.22 0.174-0.174 0.755-0.239 1.22-0.291 0.818-0.092 1.664-0.188 2.041-0.84 0.374-0.644 0.038-1.417-0.288-2.165-0.19-0.435-0.425-0.977-0.359-1.224 0.061-0.226 0.522-0.566 0.891-0.838 0.64-0.471 1.364-1.005 1.364-1.775s-0.724-1.304-1.363-1.775zm-0.617 2.708c-0.555 0.408-1.128 0.829-1.282 1.408-0.16 0.599 0.131 1.265 0.411 1.91 0.18 0.413 0.451 1.037 0.342 1.226-0.113 0.197-0.799 0.275-1.254 0.326-0.693 0.078-1.41 0.158-1.842 0.59s-0.512 1.149-0.589 1.842c-0.051 0.454-0.128 1.141-0.327 1.254-0.03 0.018-0.08 0.022-0.116 0.022-0.272 0-0.698-0.185-1.11-0.364-0.647-0.281-1.354-0.56-1.909-0.41-0.579 0.155-1.001 0.727-1.41 1.281-0.275 0.374-0.692 0.938-0.934 0.938s-0.659-0.564-0.934-0.938c-0.408-0.553-0.829-1.126-1.409-1.28-0.113-0.03-0.235-0.046-0.364-0.046-0.497 0-1.031 0.232-1.546 0.457-0.411 0.179-0.837 0.364-1.109 0.364-0.037 0-0.087-4e-3 -0.117-0.022-0.198-0.114-0.275-0.8-0.326-1.254-0.078-0.693-0.158-1.41-0.59-1.842-0.431-0.432-1.149-0.512-1.842-0.59-0.453-0.051-1.14-0.128-1.253-0.326-0.11-0.188 0.163-0.813 0.342-1.226 0.281-0.645 0.571-1.311 0.411-1.91-0.155-0.578-0.728-1-1.281-1.408-0.374-0.277-0.938-0.693-0.938-0.935s0.564-0.658 0.938-0.935c0.554-0.408 1.127-0.83 1.281-1.408 0.16-0.599-0.13-1.265-0.411-1.91-0.178-0.414-0.451-1.037-0.342-1.226 0.115-0.198 0.8-0.275 1.254-0.325 0.693-0.078 1.41-0.159 1.842-0.591s0.512-1.148 0.59-1.841c0.05-0.454 0.128-1.14 0.326-1.255 0.03-0.017 0.08-0.021 0.117-0.021 0.271 0 0.697 0.185 1.108 0.365 0.647 0.28 1.353 0.561 1.91 0.41 0.579-0.155 1-0.727 1.409-1.282 0.276-0.373 0.692-0.938 0.934-0.938s0.66 0.565 0.935 0.937c0.408 0.553 0.83 1.126 1.409 1.281 0.551 0.147 1.262-0.129 1.909-0.41 0.412-0.179 0.837-0.365 1.11-0.365 0.036 0 0.086 5e-3 0.116 0.022 0.199 0.115 0.275 0.801 0.326 1.255 0.078 0.693 0.159 1.409 0.591 1.841 0.431 0.432 1.149 0.513 1.841 0.591 0.453 0.051 1.14 0.128 1.254 0.326 0.109 0.187-0.163 0.812-0.343 1.226-0.28 0.645-0.57 1.311-0.411 1.91 0.156 0.578 0.729 1 1.282 1.408 0.373 0.277 0.938 0.693 0.938 0.935s-0.565 0.658-0.937 0.933z"/>
            <path d="m8.87 9.391c-0.288 0-0.522 0.234-0.522 0.522v2.609l-2.192-2.922c-0.134-0.179-0.37-0.254-0.582-0.182-0.213 0.071-0.357 0.271-0.357 0.495v4.174c0 0.288 0.234 0.522 0.522 0.522s0.522-0.234 0.522-0.522v-2.609l2.191 2.922c0.1 0.134 0.257 0.209 0.418 0.209 0.055 0 0.11-9e-3 0.164-0.027 0.213-0.071 0.357-0.271 0.357-0.495v-4.174c0-0.288-0.233-0.522-0.521-0.522z"/>
            <path d="m13.044 13.565h-1.566v-3.13h1.566c0.288 0 0.521-0.234 0.521-0.522s-0.233-0.522-0.521-0.522h-2.087c-0.288 0-0.522 0.234-0.522 0.522v4.174c0 0.288 0.234 0.522 0.522 0.522h2.087c0.288 0 0.521-0.234 0.521-0.522s-0.233-0.522-0.521-0.522z"/>
            <path d="m13.044 11.478h-2.087c-0.288 0-0.522 0.234-0.522 0.522s0.234 0.522 0.522 0.522h2.087c0.288 0 0.521-0.234 0.521-0.522s-0.233-0.522-0.521-0.522z"/>
            <path d="m19.43 9.407c-0.282-0.07-0.564 0.099-0.633 0.38l-0.608 2.435-0.477-1.43c-0.142-0.426-0.847-0.426-0.99 0l-0.477 1.43-0.608-2.435c-0.07-0.281-0.358-0.451-0.633-0.38-0.279 0.07-0.448 0.353-0.38 0.632l1.044 4.174c0.056 0.225 0.255 0.386 0.486 0.395 0.262 0.01 0.443-0.137 0.516-0.356l0.548-1.646 0.547 1.646c0.072 0.214 0.272 0.357 0.496 0.357 6e-3 0 0.014 0 0.019-1e-3 0.231-9e-3 0.43-0.169 0.486-0.395l1.043-4.174c0.07-0.279-0.099-0.562-0.379-0.632z"/>
        </g>
    
</svg>
