<svg width="20" height="20" viewBox="0 0 20 20" fill="none" xmlns="http://www.w3.org/2000/svg">
<g clip-path="url(#clip0_1_1261)">
<path d="M17.774 0.00525987C15.4124 0.00525987 4.65091 0.00525975 2.52598 0C2.38661 0.000416237 2.25306 0.055965 2.15451 0.154514C2.05596 0.253064 2.00042 0.386606 2 0.525975V19.4611C2.00041 19.6004 2.05595 19.734 2.15451 19.8325C2.25306 19.9311 2.3866 19.9866 2.52598 19.9871H5.16637C5.1764 20.0121 12.0926 19.9942 15.6764 19.9879C15.815 19.9868 15.9475 19.9309 16.0449 19.8324C16.1423 19.7338 16.1967 19.6007 16.1961 19.4621C16.1956 19.3235 16.1401 19.1908 16.042 19.093C15.9438 18.9952 15.8109 18.9403 15.6723 18.9404H6.2078V1.05721H17.248V19.4599C17.2498 19.5983 17.306 19.7304 17.4045 19.8275C17.503 19.9247 17.6358 19.9792 17.7742 19.9791C17.9125 19.9791 18.0453 19.9246 18.1437 19.8273C18.2421 19.7301 18.2983 19.598 18.3 19.4596V0.531235C18.2996 0.391862 18.244 0.258314 18.1455 0.159762C18.0469 0.0612102 17.9134 0.00566507 17.774 0.00525987ZM5.15585 18.9351H3.05195V1.05195H5.15585V18.9351ZM9.03624 3.16844H14.1609C14.2986 3.17112 14.4298 3.22771 14.5262 3.32605C14.6227 3.4244 14.6767 3.55665 14.6767 3.6944C14.6767 3.83214 14.6227 3.9644 14.5262 4.06275C14.4298 4.1611 14.2986 4.2177 14.1609 4.22039H9.03625C8.89853 4.2177 8.76735 4.16111 8.6709 4.06276C8.57445 3.96441 8.52043 3.83216 8.52043 3.69441C8.52043 3.55666 8.57445 3.42441 8.6709 3.32606C8.76735 3.22772 8.89853 3.17112 9.03625 3.16844H9.03624ZM9.03624 5.27234H14.1609C14.2986 5.27502 14.4298 5.33161 14.5262 5.42995C14.6227 5.5283 14.6767 5.66055 14.6767 5.7983C14.6767 5.93604 14.6227 6.0683 14.5262 6.16665C14.4298 6.265 14.2986 6.3216 14.1609 6.32429H9.03625C8.89853 6.3216 8.76735 6.26501 8.6709 6.16666C8.57445 6.06831 8.52043 5.93606 8.52043 5.79831C8.52043 5.66056 8.57445 5.52831 8.6709 5.42996C8.76735 5.33162 8.89853 5.27502 9.03625 5.27234H9.03624ZM15.5649 13.4176C15.153 12.6943 14.5569 12.0929 13.8372 11.6746C13.1175 11.2563 12.3 11.0359 11.4676 11.0359C10.6351 11.0359 9.81757 11.2563 9.09791 11.6746C8.37826 12.093 7.78217 12.6944 7.37024 13.4177C7.32627 13.4965 7.30318 13.5852 7.30318 13.6754C7.30318 13.7656 7.32627 13.8543 7.37024 13.9331C7.78219 14.6564 8.37829 15.2578 9.09795 15.6761C9.81762 16.0944 10.6352 16.3148 11.4676 16.3148C12.3 16.3148 13.1176 16.0944 13.8373 15.676C14.5569 15.2577 15.153 14.6563 15.5649 13.933C15.6089 13.8542 15.632 13.7655 15.632 13.6753C15.632 13.5851 15.6089 13.4964 15.5649 13.4176ZM10.2 15.0534C9.48576 14.7872 8.87188 14.3056 8.44319 13.6754C8.87186 13.0451 9.48573 12.5635 10.2 12.2973C10.0094 12.4728 9.85738 12.6858 9.75337 12.923C9.64937 13.1602 9.59567 13.4164 9.59567 13.6754C9.59567 13.9344 9.64938 14.1905 9.75339 14.4277C9.8574 14.6649 10.0095 14.878 10.2 15.0534H10.2ZM11.4676 14.5064C11.2492 14.5033 11.0408 14.4144 10.8875 14.2588C10.7342 14.1033 10.6483 13.8937 10.6483 13.6753C10.6483 13.457 10.7342 13.2473 10.8875 13.0918C11.0409 12.9363 11.2492 12.8474 11.4676 12.8443C11.6859 12.8474 11.8943 12.9364 12.0476 13.0919C12.2009 13.2474 12.2869 13.457 12.2869 13.6754C12.2869 13.8937 12.2009 14.1034 12.0476 14.2589C11.8943 14.4144 11.6859 14.5033 11.4676 14.5064ZM12.7352 15.0534C12.9257 14.878 13.0777 14.6649 13.1817 14.4277C13.2857 14.1905 13.3394 13.9343 13.3394 13.6754C13.3394 13.4164 13.2857 13.1602 13.1817 12.923C13.0777 12.6858 12.9257 12.4727 12.7352 12.2973C13.4494 12.5635 14.0632 13.0451 14.4919 13.6754C14.0632 14.3056 13.4494 14.7871 12.7352 15.0534H12.7352Z" fill="#757575"/>
</g>
<defs>
<clipPath id="clip0_1_1261">
<rect width="20" height="20" fill="white"/>
</clipPath>
</defs>
</svg>
