<svg width="100" height="100" viewBox="0 0 100 100" fill="none" xmlns="http://www.w3.org/2000/svg">
<g clip-path="url(#clip0_1642_6328)">
<path d="M50 90C72.0914 90 90 72.0914 90 50C90 27.9086 72.0914 10 50 10C27.9086 10 10 27.9086 10 50C10 72.0914 27.9086 90 50 90Z" fill="#BF0505"/>
<path d="M50 99C77.062 99 99 77.062 99 50C99 22.938 77.062 1 50 1C22.938 1 1 22.938 1 50C1 77.062 22.938 99 50 99Z" stroke="#BF0505" stroke-width="2"/>
<path d="M53.1153 50.0003L66.3545 36.7607C67.2161 35.8995 67.2161 34.5071 66.3545 33.6459C65.4933 32.7847 64.1009 32.7847 63.2397 33.6459L50.0002 46.8855L36.761 33.6459C35.8994 32.7847 34.5074 32.7847 33.6462 33.6459C32.7846 34.5071 32.7846 35.8995 33.6462 36.7607L46.8854 50.0003L33.6462 63.2398C32.7846 64.101 32.7846 65.4934 33.6462 66.3546C34.0754 66.7842 34.6397 67 35.2036 67C35.7675 67 36.3314 66.7842 36.761 66.3546L50.0002 53.115L63.2397 66.3546C63.6693 66.7842 64.2332 67 64.7971 67C65.361 67 65.9249 66.7842 66.3545 66.3546C67.2161 65.4934 67.2161 64.101 66.3545 63.2398L53.1153 50.0003Z" fill="white"/>
</g>
<defs>
<clipPath id="clip0_1642_6328">
<rect width="100" height="100" fill="white"/>
</clipPath>
</defs>
</svg>
