<svg width="30" height="30" viewBox="0 0 30 30" fill="none" xmlns="http://www.w3.org/2000/svg">
<g clip-path="url(#clip0_501_1054)">
<path d="M5.5664 18.8848C4.92459 19.1387 4.37493 19.5813 3.99007 20.1543C3.6052 20.7272 3.40326 21.4035 3.41092 22.0937V28.0618C3.41149 28.5757 3.61586 29.0683 3.97918 29.4317C4.34251 29.795 4.83513 29.9994 5.34896 30H24.651C25.1649 29.9994 25.6575 29.795 26.0209 29.4317C26.3842 29.0683 26.5886 28.5757 26.5892 28.0618V22.0935C26.5968 21.4034 26.3948 20.7271 26.01 20.1542C25.6251 19.5813 25.0754 19.1386 24.4336 18.8848L18.3155 16.3853L18.3252 14.8287C19.0043 14.3155 19.5552 13.6517 19.9345 12.8896C20.3138 12.1275 20.5113 11.2879 20.5113 10.4366V10.2628H21.1107C21.539 10.2628 21.9528 10.1075 22.2752 9.82566C22.5977 9.54381 22.807 9.15456 22.8642 8.73013C22.9215 8.30569 22.8228 7.8749 22.5866 7.51769C22.3503 7.16048 21.9925 6.90109 21.5795 6.78768V6.57949C21.5795 4.8345 20.8863 3.16098 19.6524 1.92709C18.4185 0.693195 16.745 0 15 0C13.255 0 11.5815 0.693195 10.3476 1.92709C9.1137 3.16098 8.42051 4.8345 8.42051 6.57949V6.96527C8.00756 7.07874 7.64978 7.33813 7.41355 7.69534C7.17733 8.05255 7.07869 8.48332 7.13593 8.90773C7.19318 9.33214 7.40243 9.72138 7.72486 10.0032C8.04728 10.2851 8.461 10.4404 8.88926 10.4404H9.48873C9.48931 11.2911 9.687 12.1301 10.0663 12.8915C10.4456 13.653 10.9961 14.3162 11.6748 14.8291L11.6845 16.3856L5.5664 18.8848ZM24.0793 19.7526C24.5475 19.9379 24.9485 20.2608 25.2293 20.6788C25.51 21.0968 25.6574 21.5902 25.6518 22.0937V28.0618C25.6515 28.3271 25.5459 28.5815 25.3583 28.7691C25.1707 28.9567 24.9163 29.0622 24.651 29.0625H22.0898V24.4596C22.0898 24.3352 22.0405 24.216 21.9525 24.1281C21.8646 24.0402 21.7454 23.9908 21.6211 23.9908C21.4968 23.9908 21.3775 24.0402 21.2896 24.1281C21.2017 24.216 21.1523 24.3352 21.1523 24.4596V29.0625H8.84765V24.4596C8.84765 24.3352 8.79827 24.216 8.71036 24.1281C8.62245 24.0402 8.50322 23.9908 8.3789 23.9908C8.25458 23.9908 8.13535 24.0402 8.04745 24.1281C7.95954 24.216 7.91015 24.3352 7.91015 24.4596V29.0625H5.34896C5.08367 29.0622 4.82935 28.9566 4.64176 28.769C4.45418 28.5814 4.34864 28.3271 4.3483 28.0618V22.0935C4.34271 21.59 4.49004 21.0967 4.7708 20.6787C5.05157 20.2607 5.45256 19.9377 5.92078 19.7525L12.062 17.2437L14.6885 19.5797C14.7743 19.6561 14.8852 19.6982 15 19.6982C15.1148 19.6982 15.2257 19.6561 15.3115 19.5797L17.9379 17.2437L24.0793 19.7526ZM21.9425 8.49346C21.9424 8.71407 21.8546 8.92559 21.6986 9.08159C21.5426 9.23758 21.3311 9.3253 21.1105 9.32549H20.5113V7.66166H21.1107C21.3313 7.66191 21.5427 7.74962 21.6986 7.90556C21.8546 8.0615 21.9423 8.27293 21.9425 8.49346ZM15 0.9375C16.4958 0.939206 17.9299 1.53418 18.9876 2.59189C20.0453 3.64959 20.6403 5.08367 20.642 6.57949V6.72416H19.6693C18.7692 6.47672 18.552 6.07107 18.2264 5.46334C18.1351 5.29277 18.0406 5.11641 17.9242 4.93014C17.8602 4.82789 17.7594 4.75421 17.6425 4.72442C17.5257 4.69463 17.4018 4.71102 17.2968 4.77018C13.4941 6.91119 13.125 6.9109 9.58922 6.90275L9.35801 6.90229V6.57949C9.35971 5.08367 9.95468 3.64959 11.0124 2.59189C12.0701 1.53418 13.5042 0.939206 15 0.9375ZM8.05746 8.67105C8.05765 8.45044 8.14536 8.23892 8.30136 8.08293C8.45736 7.92693 8.66888 7.83921 8.88949 7.83902C9.0989 7.83902 9.29801 7.83937 9.4889 7.83979V9.50268H8.88926C8.66876 9.50241 8.45737 9.41472 8.30144 9.25882C8.14551 9.10292 8.05777 8.89155 8.05746 8.67105ZM10.4262 10.4366V7.8409C13.1927 7.83311 14.0121 7.67391 17.3511 5.81461C17.3676 5.84523 17.384 5.87572 17.4002 5.90607C17.7666 6.59033 18.1455 7.29785 19.4903 7.64678C19.5177 7.65356 19.5457 7.65787 19.5738 7.65967V10.437C19.5738 11.6501 19.0919 12.8134 18.2342 13.6712C17.3764 14.529 16.2131 15.0108 15 15.0108C13.7869 15.0108 12.6236 14.529 11.7658 13.6712C10.9081 12.8134 10.4262 11.6501 10.4262 10.437V10.4366ZM15 15.9479C15.8254 15.9489 16.6404 15.7634 17.3841 15.4051L17.3773 16.4878L15 18.6022L12.6227 16.4878L12.6159 15.4051C13.3596 15.7634 14.1746 15.9489 15 15.9479ZM11.8092 9.32191C11.78 9.37607 11.7403 9.42394 11.6925 9.46278C11.6448 9.50161 11.5898 9.53066 11.5309 9.54827C11.4719 9.56587 11.41 9.57168 11.3488 9.56538C11.2875 9.55907 11.2281 9.54076 11.174 9.51149C11.1198 9.48223 11.0719 9.44259 11.0331 9.39483C10.9943 9.34707 10.9652 9.29212 10.9476 9.23314C10.93 9.17415 10.9242 9.11227 10.9305 9.05104C10.9368 8.9898 10.9551 8.93041 10.9844 8.87625C11.1115 8.64112 11.2998 8.44472 11.5294 8.30784C11.7589 8.17096 12.0212 8.0987 12.2885 8.0987C12.5558 8.0987 12.8181 8.17096 13.0477 8.30784C13.2773 8.44472 13.4655 8.64112 13.5926 8.87625C13.6225 8.93045 13.6413 8.99001 13.648 9.0515C13.6546 9.113 13.6491 9.17521 13.6316 9.23456C13.6142 9.2939 13.5851 9.3492 13.5462 9.39727C13.5073 9.44534 13.4592 9.48522 13.4048 9.51463C13.3504 9.54404 13.2907 9.56238 13.2291 9.56861C13.1676 9.57483 13.1054 9.56881 13.0462 9.5509C12.987 9.53298 12.9319 9.50353 12.8841 9.46423C12.8364 9.42493 12.7969 9.37656 12.7679 9.32191C12.7211 9.23551 12.6519 9.16334 12.5676 9.11304C12.4832 9.06275 12.3868 9.03619 12.2885 9.03619C12.1903 9.03619 12.0939 9.06275 12.0095 9.11304C11.9252 9.16334 11.8559 9.23551 11.8092 9.32191ZM16.4073 8.87625C16.5344 8.64112 16.7227 8.44472 16.9523 8.30784C17.1818 8.17096 17.4441 8.0987 17.7114 8.0987C17.9787 8.0987 18.241 8.17096 18.4706 8.30784C18.7002 8.44472 18.8885 8.64112 19.0155 8.87625C19.0448 8.93041 19.0631 8.9898 19.0694 9.05104C19.0757 9.11227 19.0699 9.17415 19.0523 9.23314C19.0347 9.29212 19.0057 9.34707 18.9668 9.39483C18.928 9.44259 18.8801 9.48223 18.826 9.51149C18.7718 9.54076 18.7124 9.55907 18.6512 9.56538C18.5899 9.57168 18.5281 9.56587 18.4691 9.54827C18.4101 9.53066 18.3551 9.50161 18.3074 9.46278C18.2596 9.42394 18.22 9.37607 18.1907 9.32191C18.144 9.23552 18.0748 9.16337 17.9904 9.11308C17.906 9.0628 17.8096 9.03625 17.7114 9.03625C17.6132 9.03625 17.5168 9.0628 17.4324 9.11308C17.3481 9.16337 17.2789 9.23552 17.2321 9.32191C17.2029 9.37607 17.1632 9.42394 17.1155 9.46278C17.0677 9.50161 17.0128 9.53066 16.9538 9.54827C16.8948 9.56587 16.8329 9.57168 16.7717 9.56538C16.7104 9.55907 16.651 9.54076 16.5969 9.51149C16.5427 9.48223 16.4949 9.44259 16.456 9.39483C16.4172 9.34707 16.3881 9.29212 16.3705 9.23314C16.3529 9.17415 16.3471 9.11227 16.3534 9.05104C16.3597 8.9898 16.378 8.93041 16.4073 8.87625ZM13.4525 11.6243C13.5595 11.561 13.6873 11.5427 13.8077 11.5736C13.9281 11.6045 14.0313 11.6819 14.0947 11.7889C14.2708 12.0864 14.6177 12.2712 15 12.2712C15.3823 12.2712 15.7291 12.0864 15.9053 11.7889C15.9692 11.6831 16.0723 11.6068 16.1921 11.5766C16.312 11.5464 16.4389 11.5649 16.5453 11.6278C16.6517 11.6908 16.7289 11.7932 16.7601 11.9128C16.7913 12.0324 16.774 12.1595 16.712 12.2664C16.368 12.8476 15.7119 13.2087 15 13.2087C14.2881 13.2087 13.632 12.8476 13.2879 12.2664C13.2247 12.1595 13.2065 12.0318 13.2374 11.9114C13.2682 11.791 13.3456 11.6879 13.4525 11.6245V11.6243ZM17.5127 20.9239C16.9865 21.1056 16.6301 21.5798 16.5828 22.162C16.4846 23.3682 17.9568 24.5135 18.5323 24.8531C18.6045 24.8956 18.6867 24.9181 18.7705 24.9181C18.8543 24.9181 18.9365 24.8956 19.0087 24.8531C19.5843 24.5132 21.0564 23.3682 20.9582 22.162C20.9108 21.5798 20.5545 21.1055 20.0283 20.9239C19.8196 20.8545 19.5977 20.8337 19.3797 20.8631C19.1617 20.8926 18.9533 20.9715 18.7705 21.0939C18.5877 20.9715 18.3793 20.8927 18.1613 20.8632C17.9433 20.8338 17.7214 20.8547 17.5127 20.9242V20.9239ZM18.7705 22.1711C18.8352 22.1711 18.8993 22.1577 18.9585 22.1317C19.0178 22.1058 19.0711 22.0678 19.115 22.0202C19.2989 21.821 19.5261 21.7424 19.7227 21.8102C19.8943 21.8694 20.0068 22.0294 20.0238 22.238C20.0648 22.7398 19.3727 23.467 18.7705 23.891C18.1683 23.467 17.4763 22.7398 17.5172 22.238C17.5342 22.0293 17.6467 21.8693 17.8184 21.8102C17.8646 21.7943 17.9131 21.7863 17.962 21.7864C18.1202 21.7864 18.2856 21.8684 18.426 22.0202C18.4699 22.0678 18.5232 22.1059 18.5824 22.1319C18.6417 22.1579 18.7058 22.1713 18.7705 22.1713V22.1711Z" fill="#757575"/>
</g>
<defs>
<clipPath id="clip0_501_1054">
<rect width="30" height="30" fill="white"/>
</clipPath>
</defs>
</svg>
