<svg width="18" height="18" viewBox="0 0 18 18" fill="none" xmlns="http://www.w3.org/2000/svg">
<g clip-path="url(#clip0_240_59)">
<mask id="mask0_240_59" style="mask-type:luminance" maskUnits="userSpaceOnUse" x="0" y="0" width="18" height="18">
<path d="M18 0H0V18H18V0Z" fill="white"/>
</mask>
<g mask="url(#mask0_240_59)">
<mask id="mask1_240_59" style="mask-type:luminance" maskUnits="userSpaceOnUse" x="0" y="0" width="18" height="18">
<path d="M0 0H18V18H0V0Z" fill="white"/>
</mask>
<g mask="url(#mask1_240_59)">
<path d="M12.5674 2.27159C11.7439 1.17355 10.4514 0.527344 9.07888 0.527344H8.92071C7.54818 0.527344 6.25577 1.17355 5.43227 2.27159C5.1816 2.60589 5.0459 3.01257 5.0459 3.43044V5.6109C5.0459 7.79463 6.81612 9.56482 8.99982 9.56482C11.1835 9.56482 12.9537 7.79463 12.9537 5.6109V3.43044C12.9537 3.01257 12.8181 2.60589 12.5674 2.27159Z" stroke="#666666" stroke-width="1.17187" stroke-miterlimit="10" stroke-linecap="round" stroke-linejoin="round"/>
<path d="M5.0459 5.04605C5.40752 5.04605 5.7544 4.90237 6.01013 4.64671C6.33518 4.32162 6.74043 3.91638 6.74043 3.91638C8.16271 4.62755 9.83685 4.62755 11.2591 3.91638C11.2591 3.91638 11.6644 4.32162 11.9895 4.64671C12.2452 4.90237 12.592 5.04605 12.9537 5.04605" stroke="#666666" stroke-width="1.17187" stroke-miterlimit="10" stroke-linecap="round" stroke-linejoin="round"/>
<path d="M17.4727 17.4727C17.4727 17.4727 16.7831 15.4041 16.2838 13.9061C15.9701 12.9649 15.1856 12.2574 14.2172 12.0422C12.7229 11.7101 10.6945 11.2594 10.6945 11.2594L9 14.0836L7.30547 11.2594C7.30547 11.2594 5.27709 11.7101 3.78285 12.0422C2.81443 12.2574 2.02992 12.9649 1.71619 13.9061C1.21686 15.4041 0.527344 17.4727 0.527344 17.4727" stroke="#666666" stroke-width="1.17187" stroke-miterlimit="10" stroke-linecap="round" stroke-linejoin="round"/>
<path d="M7.30566 11.2594V9.27148" stroke="#666666" stroke-width="1.17187" stroke-miterlimit="10" stroke-linecap="round" stroke-linejoin="round"/>
<path d="M10.6943 11.2594V9.27148" stroke="#666666" stroke-width="1.17187" stroke-miterlimit="10" stroke-linecap="round" stroke-linejoin="round"/>
</g>
</g>
</g>
<defs>
<clipPath id="clip0_240_59">
<rect width="18" height="18" fill="white"/>
</clipPath>
</defs>
</svg>
