<svg width="18" height="18" viewBox="0 0 18 18" fill="none" xmlns="http://www.w3.org/2000/svg">
<g clip-path="url(#clip0_1782_6479)">
<path d="M9 0C4.02567 0 0 4.02528 0 9C0 13.9743 4.02528 18 9 18C13.9743 18 18 13.9747 18 9C18 4.02567 13.9747 0 9 0ZM5.51763 1.8546C5.24528 2.59636 5.01666 3.35039 4.83212 4.11497C4.29279 3.95111 3.76225 3.75462 3.24155 3.52568C3.90087 2.833 4.66917 2.26898 5.51763 1.8546ZM2.54313 4.36781C3.21711 4.67993 3.90688 4.94086 4.61039 5.15014C4.40627 6.23974 4.28955 7.34875 4.26185 8.47266H1.07234C1.16947 6.98059 1.67794 5.5684 2.54313 4.36781ZM2.54313 13.6322C1.67794 12.4316 1.16947 11.0194 1.07234 9.52734H4.26185C4.28955 10.6513 4.40627 11.7603 4.61039 12.8499C3.90688 13.0591 3.21715 13.3201 2.54313 13.6322ZM3.24155 14.4744C3.76225 14.2454 4.29275 14.0489 4.83212 13.8851C5.01669 14.6496 5.24528 15.4037 5.51763 16.1454C4.66959 15.7313 3.90122 15.1674 3.24155 14.4744ZM8.47266 16.9277C7.9188 16.8916 7.37589 16.7992 6.85072 16.6526C6.43359 15.664 6.10066 14.6503 5.85236 13.6164C6.70729 13.4252 7.58201 13.3135 8.47266 13.2819V16.9277ZM8.47266 12.2265C7.50769 12.2584 6.55998 12.378 5.63375 12.5842C5.44975 11.5813 5.34371 10.561 5.31689 9.52734H8.47266V12.2265ZM8.47266 8.47266H5.31689C5.34371 7.43899 5.44975 6.41872 5.63375 5.41575C6.55998 5.62205 7.50769 5.74158 8.47266 5.77347V8.47266ZM8.47266 4.71814C7.58201 4.68654 6.70729 4.57478 5.85236 4.38363C6.10066 3.34965 6.43359 2.33603 6.85072 1.34743C7.37589 1.20083 7.9188 1.10837 8.47266 1.07234V4.71814ZM15.4569 4.36781C16.3221 5.5684 16.8305 6.98059 16.9277 8.47266H13.7381C13.7104 7.34875 13.5937 6.23974 13.3896 5.15014C14.0931 4.94086 14.7829 4.67993 15.4569 4.36781ZM14.7585 3.52564C14.2378 3.75462 13.7072 3.95111 13.1679 4.11493C12.9833 3.35036 12.7547 2.59632 12.4824 1.85456C13.3304 2.26874 14.0988 2.83264 14.7585 3.52564ZM9.52734 1.07234C10.0812 1.10837 10.6241 1.20083 11.1493 1.34743C11.5664 2.33603 11.8993 3.34965 12.1476 4.38363C11.2927 4.57478 10.418 4.68654 9.52734 4.71814V1.07234ZM9.52734 5.77347C10.4923 5.74158 11.44 5.62205 12.3662 5.41575C12.5503 6.41872 12.6563 7.43899 12.6831 8.47266H9.52734V5.77347ZM11.1492 16.6525C10.6241 16.7992 10.0812 16.8916 9.52734 16.9277V13.2819C10.418 13.3135 11.2927 13.4252 12.1476 13.6164C11.8993 14.6503 11.5664 15.664 11.1492 16.6525ZM9.52734 12.2265V9.52734H12.6831C12.6563 10.561 12.5503 11.5813 12.3662 12.5842C11.44 12.378 10.4923 12.2584 9.52734 12.2265ZM12.4824 16.1454C12.7547 15.4036 12.9833 14.6496 13.1679 13.885C13.7072 14.0489 14.2378 14.2454 14.7585 14.4743C14.0991 15.167 13.3308 15.731 12.4824 16.1454ZM15.4569 13.6322C14.7829 13.3201 14.0931 13.0591 13.3896 12.8499C13.5937 11.7603 13.7104 10.6513 13.7381 9.52734H16.9277C16.8305 11.0194 16.3221 12.4316 15.4569 13.6322Z" fill="white"/>
</g>
<defs>
<clipPath id="clip0_1782_6479">
<rect width="18" height="18" fill="white"/>
</clipPath>
</defs>
</svg>
