<svg width="20" height="20" viewBox="0 0 20 20" fill="none" xmlns="http://www.w3.org/2000/svg">
<path d="M12.3 18.875C11.9557 18.8696 11.6193 18.7716 11.326 18.5912C11.0327 18.4108 10.7935 18.1548 10.6333 17.85L7.73333 12.55C7.67017 12.4287 7.57126 12.3298 7.44999 12.2667L2.14999 9.40834C1.81323 9.2254 1.53784 8.94729 1.35823 8.60875C1.17861 8.27021 1.10274 7.88625 1.14008 7.50483C1.17742 7.12342 1.32632 6.76146 1.56819 6.46418C1.81005 6.1669 2.13415 5.94748 2.49999 5.83334L16.3083 1.225C16.657 1.10143 17.0336 1.07915 17.3944 1.16075C17.7553 1.24236 18.0856 1.4245 18.3472 1.6861C18.6088 1.9477 18.791 2.27804 18.8726 2.63888C18.9542 2.99973 18.9319 3.3763 18.8083 3.725L14.1667 17.5417C14.05 17.902 13.8297 18.2199 13.5332 18.4556C13.2367 18.6913 12.8773 18.8343 12.5 18.8667L12.3 18.875ZM16.6667 2.41667L2.85833 7.025C2.72669 7.06733 2.61053 7.14769 2.52451 7.25596C2.43849 7.36422 2.38646 7.49554 2.37499 7.63334C2.36255 7.76949 2.39075 7.90628 2.45601 8.02642C2.52127 8.14656 2.62067 8.24466 2.74166 8.30834L8.04166 11.1667C8.37876 11.3455 8.65452 11.6212 8.83333 11.9583L11.6667 17.2583C11.7303 17.3793 11.8284 17.4787 11.9486 17.544C12.0687 17.6093 12.2055 17.6374 12.3417 17.625C12.4795 17.6135 12.6108 17.5615 12.719 17.4755C12.8273 17.3895 12.9077 17.2733 12.95 17.1417L17.5833 3.33334C17.6373 3.20512 17.6518 3.06373 17.625 2.92723C17.5983 2.79072 17.5314 2.66529 17.4331 2.56693C17.3347 2.46857 17.2093 2.40174 17.0728 2.37498C16.9363 2.34822 16.7949 2.36273 16.6667 2.41667Z" fill="white"/>
<path d="M8.05833 12.5667C7.97601 12.5685 7.89421 12.5532 7.81815 12.5216C7.7421 12.49 7.67348 12.4429 7.61667 12.3833C7.5577 12.3259 7.51084 12.2572 7.47884 12.1813C7.44684 12.1055 7.43036 12.024 7.43036 11.9417C7.43036 11.8593 7.44684 11.7778 7.47884 11.702C7.51084 11.6261 7.5577 11.5575 7.61667 11.5L17.4167 1.66667C17.5382 1.54511 17.7031 1.47682 17.875 1.47682C18.0469 1.47682 18.2118 1.54511 18.3333 1.66667C18.4549 1.78823 18.5232 1.95309 18.5232 2.125C18.5232 2.29691 18.4549 2.46178 18.3333 2.58334L8.5 12.3833C8.4423 12.4418 8.3735 12.4881 8.29766 12.5196C8.22182 12.551 8.14045 12.5671 8.05833 12.5667Z" fill="white"/>
</svg>
