<?xml version="1.0" encoding="UTF-8"?>
<!DOCTYPE svg  PUBLIC '-//W3C//DTD SVG 1.1//EN'  'http://www.w3.org/Graphics/SVG/1.1/DTD/svg11.dtd'>
<svg clip-rule="evenodd" fill-rule="evenodd" stroke-linejoin="round" stroke-miterlimit="1.4142" version="1.1" viewBox="0 0 24 24" xml:space="preserve" xmlns="http://www.w3.org/2000/svg">
    <path d="m11.972 8.916c0.619-1.561 0.065-2.914-0.898-3.653-0.354-0.27-1.268-0.199-1.844-0.363-1.171-0.33-1.936-0.26-2.408 0.225-0.397 0.407-0.395 1.036-1.152 1.815-0.549 0.565-0.691 1.24-0.427 2.014 1.201-2.23 5.588-2.98 6.729-0.038zm9.517-0.825c-0.109 0-0.217-0.041-0.299-0.124l-2.283-2.284-2.284 2.284c-0.165 0.165-0.432 0.165-0.597 0s-0.165-0.432 0-0.596l2.284-2.285-2.284-2.284c-0.165-0.164-0.165-0.43 0-0.595s0.432-0.165 0.597 0l2.284 2.283 2.283-2.283c0.164-0.165 0.432-0.165 0.596 0 0.165 0.165 0.165 0.432 0 0.595l-2.284 2.284 2.284 2.285c0.266 0.265 0.075 0.72-0.297 0.72zm2.082 2.082h-9.329c-0.234 0-0.423-0.189-0.423-0.421v-9.331c0-0.232 0.189-0.421 0.423-0.421h9.329c0.234 0 0.422 0.189 0.422 0.421v9.331c0 0.232-0.188 0.421-0.422 0.421zm-8.908-0.842h8.487v-8.487h-8.487v8.487zm-11.489 13.827v-1.659c0-0.232 0.189-0.421 0.422-0.421 0.232 0 0.421 0.189 0.421 0.421v1.659h9.102v-1.659c0-0.232 0.188-0.421 0.421-0.421 0.234 0 0.423 0.189 0.423 0.421v1.659h2.322v-2.665c0-2.301-1.872-4.173-4.173-4.173h-0.549c-0.206 1.468-1.471 2.602-2.995 2.602s-2.789-1.134-2.994-2.602h-0.55c-2.301 0-4.174 1.872-4.174 4.173v2.665h2.324zm13.532 0.842h-16.277c-0.232 0-0.421-0.189-0.421-0.421v-3.086c0-2.766 2.25-5.017 5.016-5.017h0.7l0.722-1.23c-0.91-0.663-1.504-1.737-1.504-2.948v-1.065c-0.934-1.462-0.892-2.836 0.123-3.882 0.654-0.672 0.595-1.243 1.152-1.815 0.936-0.958 2.299-0.714 3.242-0.447 0.561 0.159 1.509 0.031 2.126 0.505 0.8 0.612 1.316 1.49 1.455 2.472 0.148 1.042-0.135 2.138-0.817 3.177v1.055c0 1.22-0.602 2.302-1.525 2.962l0.713 1.216h0.701c2.766 0 5.017 2.251 5.017 5.017v3.086c0 0.232-0.189 0.421-0.423 0.421zm-10.316-7.992c0.057 1.152 1.012 2.071 2.178 2.071 1.165 0 2.121-0.919 2.178-2.071l-0.786-1.339c-0.889 0.365-1.893 0.361-2.779-0.01l-0.791 1.349zm-0.606-4.71c0 1.563 1.274 2.799 2.798 2.799 1.518 0 2.799-1.232 2.799-2.799v-1.166c-0.153-2.141-1.829-2.326-2.543-2.304-1.397 0.04-2.96 0.943-3.05 2.19-0.028 0.407-4e-3 0.867-4e-3 1.28z" fill="#fff"/>
</svg>
