<svg width="24" height="24" viewBox="0 0 24 24" fill="none" xmlns="http://www.w3.org/2000/svg">
<g clip-path="url(#clip0_652_1039)">
<path fill-rule="evenodd" clip-rule="evenodd" d="M11.9721 8.91596C12.5913 7.35467 12.0372 6.00199 11.0738 5.2632C10.7204 4.99347 9.80622 5.06389 9.22954 4.90045C8.0589 4.56959 7.29354 4.64002 6.82183 5.12501C6.42453 5.53161 6.42719 6.16144 5.6698 6.94009C5.12102 7.50482 4.97884 8.17982 5.24327 8.95449C6.44446 6.72351 10.8307 5.97409 11.9721 8.91596ZM21.4886 8.0908C21.3797 8.0908 21.2721 8.04961 21.1897 7.96722L18.9069 5.68309L16.6227 7.96722C16.458 8.13199 16.1909 8.13199 16.0261 7.96722C15.8614 7.80246 15.8614 7.53538 16.0261 7.37061L18.3103 5.08648L16.0261 2.80235C15.8614 2.63758 15.8614 2.37183 16.0261 2.20706C16.1909 2.0423 16.458 2.0423 16.6227 2.20706L18.9069 4.48987L21.1897 2.20706C21.3544 2.0423 21.6215 2.0423 21.7863 2.20706C21.951 2.37183 21.951 2.63891 21.7863 2.80235L19.5022 5.08648L21.7863 7.37061C22.052 7.63636 21.8607 8.0908 21.4886 8.0908ZM23.5708 10.173H14.2416C14.0077 10.173 13.8191 9.98428 13.8191 9.75174V0.421216C13.8191 0.188683 14.0077 0 14.2416 0H23.5708C23.8047 0 23.9933 0.188683 23.9933 0.421216V9.75174C23.9933 9.98428 23.8047 10.173 23.5708 10.173ZM14.6628 9.33053H23.1496V0.84376H14.6628V9.33053ZM3.17439 23.1576V21.4993C3.17439 21.2667 3.36308 21.0781 3.59561 21.0781C3.82814 21.0781 4.01682 21.2667 4.01682 21.4993V23.1576H13.1188V21.4993C13.1188 21.2667 13.3075 21.0781 13.54 21.0781C13.7739 21.0781 13.9626 21.2667 13.9626 21.4993V23.1576H16.2852V20.4934C16.2852 18.192 14.413 16.3198 12.1116 16.3198H11.5628C11.3569 17.7881 10.0919 18.9215 8.56781 18.9215C7.04373 18.9215 5.77875 17.7881 5.57413 16.3198H5.02402C2.72261 16.3198 0.850397 18.192 0.850397 20.4934V23.1576H3.17439ZM16.7064 24H0.429181C0.196649 24 0.00796509 23.8113 0.00796509 23.5788V20.4934C0.00796509 17.7269 2.25755 15.476 5.02402 15.476H5.72428L6.44579 14.2456C5.53559 13.5825 4.94164 12.5089 4.94164 11.2984V10.2328C4.00752 8.77112 4.05004 7.39719 5.06521 6.35146C5.71896 5.67911 5.66049 5.10774 6.21724 4.53637C7.15269 3.57834 8.51599 3.8215 9.45941 4.08858C10.0201 4.24803 10.9675 4.12047 11.5854 4.59351C12.3853 5.20607 12.9009 6.08438 13.0404 7.06633C13.1879 8.10807 12.9049 9.2043 12.2232 10.2434V11.2984C12.2232 12.5182 11.6213 13.5998 10.6978 14.2602L11.4114 15.476H12.1116C14.8781 15.476 17.129 17.7269 17.129 20.4934V23.5788C17.129 23.8113 16.9403 24 16.7064 24ZM6.38998 16.0075C6.44712 17.1596 7.40249 18.0791 8.56781 18.0791C9.73313 18.0791 10.6885 17.1596 10.7456 16.0075L9.96035 14.6695C9.07141 15.0336 8.06687 15.0296 7.18059 14.6588L6.38998 16.0075ZM5.78407 11.2984C5.78407 12.861 7.05835 14.0968 8.58243 14.0968C10.0999 14.0968 11.3808 12.865 11.3808 11.2984V10.1318C11.228 7.99114 9.55242 7.80644 8.83755 7.8277C7.44103 7.86757 5.87841 8.77112 5.78806 10.0175C5.76015 10.4254 5.78407 10.8852 5.78407 11.2984Z" fill="#0371D7"/>
</g>
<defs>
<clipPath id="clip0_652_1039">
<rect width="24" height="24" fill="white"/>
</clipPath>
</defs>
</svg>
