<?xml version="1.0" encoding="UTF-8"?>
<!DOCTYPE svg  PUBLIC '-//W3C//DTD SVG 1.1//EN'  'http://www.w3.org/Graphics/SVG/1.1/DTD/svg11.dtd'>
<svg clip-rule="evenodd" fill-rule="evenodd" stroke-linecap="round" stroke-linejoin="round" stroke-miterlimit="10" version="1.1" viewBox="0 0 26 26" xml:space="preserve" xmlns="http://www.w3.org/2000/svg">
    <g fill="none" stroke="#fff" stroke-width=".7px">
        <path d="m6.752 14.328-0.763 0.193c-0.864 0.219-1.555 0.866-1.83 1.714l-1.255 3.877c-0.274 0.846-0.094 1.773 0.478 2.454l0.628 0.748"/>
        <path d="m21.938 23.314 0.627-0.748c0.572-0.681 0.753-1.608 0.479-2.454l-1.256-3.877c-0.275-0.848-0.966-1.495-1.83-1.714l-0.762-0.193"/>
        <path d="m24.104 25h-22.261c-0.465 0-0.843-0.377-0.843-0.843s0.378-0.843 0.843-0.843h22.261c0.466 0 0.843 0.377 0.843 0.843s-0.377 0.843-0.843 0.843z"/>
        <path d="m6.607 18.724v3.214"/>
        <path d="m19.341 21.938v-7.051c0-0.152-0.03-0.297-0.083-0.43-0.171-0.422-0.584-0.72-1.067-0.72h-10.434c-0.635 0-1.15 0.515-1.15 1.15v2.145"/>
        <path d="m10.964 11.134-0.238 1.593c-0.055 0.375-0.331 0.68-0.698 0.773l-0.939 0.237"/>
        <path d="m16.859 13.737-0.939-0.237c-0.368-0.093-0.643-0.398-0.699-0.773l-0.237-1.593"/>
        <path d="m20.457 23.314c0.245-0.257 0.396-0.605 0.396-0.987 0-0.215-0.174-0.389-0.389-0.389h-14.981c-0.215 0-0.389 0.174-0.389 0.389 0 0.382 0.151 0.73 0.396 0.987"/>
        <path d="m14.269 17.878c0 0.715-0.58 1.295-1.295 1.295-0.716 0-1.296-0.58-1.296-1.295 0-0.716 0.58-1.296 1.296-1.296 0.715 0 1.295 0.58 1.295 1.296z"/>
        <path d="m12.313 1h-0.014c-0.751 2e-3 -1.355 0.622-1.355 1.373v0.022c0 2.077 1.684 3.761 3.761 3.761h3.285"/>
        <path d="m11.244 3.868v0.244c0 0.722-0.585 1.307-1.307 1.307-0.386 0-0.698 0.314-0.696 0.699l9e-3 1.943c0 2.476 2.599 3.858 3.724 3.883 1.125-0.025 3.724-1.407 3.724-3.883l5e-3 -1.905"/>
        <path d="m17.989 10.145 2e-3 -4.785c2e-3 -2.407-1.949-4.36-4.357-4.36h-1.321c-2.407 0-4.358 1.953-4.356 4.36l2e-3 8.377"/>
        <path d="m17.988 13.737 1e-3 -1.898"/>
        <path d="m9.241 6.156h-0.596c-0.38 0-0.688 0.308-0.688 0.688v0.814c0 0.38 0.308 0.689 0.689 0.689h0.616"/>
        <path d="m16.686 8.347h0.616c0.38 0 0.688-0.309 0.688-0.689v-0.814c0-0.38-0.308-0.688-0.688-0.688h-0.599"/>
    </g>
</svg>
