<svg width="20" height="20" viewBox="0 0 20 20" fill="none" xmlns="http://www.w3.org/2000/svg">
<g clip-path="url(#clip0_1123_6212)">
<path fill-rule="evenodd" clip-rule="evenodd" d="M10 2.50547C4.47705 2.50547 0 6.98252 0 12.5055V16.3516C0 16.7332 0.279877 17.0571 0.657231 17.1127C1.03483 17.1681 1.39594 16.9385 1.50597 16.5732C1.50597 16.5732 1.63914 16.1296 1.84197 15.4556C2.9152 11.8857 6.19865 9.43864 9.9264 9.43052L10 9.43027V10.3083C10 11.1804 10.4918 11.978 11.2709 12.3698C12.0502 12.7617 12.9836 12.6807 13.6839 12.1606L19.0686 8.16036C19.6546 7.72492 20 7.03815 20 6.30806C20 5.57796 19.6546 4.89095 19.0686 4.4555L13.6839 0.455257C12.9836 -0.0648665 12.0502 -0.145851 11.2709 0.246026C10.4918 0.637903 10 1.43544 10 2.30781V2.50547ZM1.53871 12.4749C1.5552 7.81575 5.33711 4.04393 10 4.04393H10.7692C11.1941 4.04393 11.5385 3.69956 11.5385 3.2747V2.30781C11.5385 2.01686 11.7024 1.75101 11.9621 1.62055C12.2218 1.48984 12.5329 1.51692 12.7663 1.69021C12.7665 1.69021 18.1511 5.69046 18.1511 5.69046C18.3463 5.83569 18.4615 6.06461 18.4615 6.30806C18.4615 6.55126 18.3463 6.78043 18.1511 6.92541L12.7665 10.9257C12.5329 11.0989 12.2218 11.126 11.9621 10.9956C11.7024 10.8649 11.5385 10.599 11.5385 10.3083V8.65932C11.5385 8.65932 11.7765 7.88787 10.7579 7.89009C10.7003 7.89033 10.3894 7.89083 9.9232 7.89206C6.47114 7.89944 3.34178 9.67643 1.53871 12.4749V12.4749Z" fill="white"/>
<path d="M10.8411 15C9.82223 15 9 15.8243 9 16.8411V19.3516C9 19.6752 9.26234 19.9375 9.58594 19.9375C9.90953 19.9375 10.1719 19.6752 10.1719 19.3516V18.6823H11.5104V19.3516C11.5104 19.6752 11.7728 19.9375 12.0964 19.9375C12.42 19.9375 12.6823 19.6752 12.6823 19.3516V16.8411C12.6823 15.8222 11.8578 15 10.8411 15ZM10.1719 17.5104V16.8411C10.1719 16.4701 10.4721 16.1718 10.8411 16.1718C11.2107 16.1718 11.5104 16.4705 11.5104 16.8411V17.5104H10.1719Z" fill="white"/>
<path d="M15.5733 18.7656H14.904V15.5859C14.904 15.2623 14.6416 15 14.3181 15C13.9945 15 13.7321 15.2623 13.7321 15.5859V19.3516C13.7321 19.6752 13.9945 19.9375 14.3181 19.9375H15.5733C15.8969 19.9375 16.1592 19.6752 16.1592 19.3516C16.1592 19.028 15.8969 18.7656 15.5733 18.7656Z" fill="white"/>
<path d="M18.7113 18.7656H18.042V15.5859C18.042 15.2623 17.7796 15 17.4561 15C17.1325 15 16.8701 15.2623 16.8701 15.5859V19.3516C16.8701 19.6752 17.1325 19.9375 17.4561 19.9375H18.7113C19.0349 19.9375 19.2972 19.6752 19.2972 19.3516C19.2972 19.028 19.0349 18.7656 18.7113 18.7656Z" fill="white"/>
</g>
<defs>
<clipPath id="clip0_1123_6212">
<rect width="20" height="20" fill="white"/>
</clipPath>
</defs>
</svg>
