<svg width="30" height="30" viewBox="0 0 30 30" fill="none" xmlns="http://www.w3.org/2000/svg">
<g clip-path="url(#clip0_465_902)">
<path d="M20.999 5.99998C20.999 2.69219 18.3068 0 14.999 0C11.6912 0 8.99903 2.69221 8.99903 5.99998C8.99903 6.1676 9.00526 6.33707 9.0166 6.50875C9.04591 7.18718 10.0688 7.12422 10.0147 6.44716C10.0052 6.29484 9.99897 6.14541 9.99897 5.99992C9.99897 3.23259 12.2316 0.9999 14.999 0.9999C17.7663 0.9999 19.999 3.23257 19.999 5.99992C19.999 6.61887 19.9105 7.29331 19.7509 7.99309C19.6672 8.00254 19.5803 8.01309 19.498 8.03501V7.49989C19.499 7.22366 19.2762 6.9989 18.9999 6.99792H17.9999C16.8692 6.99792 16.4716 5.84265 16.4716 5.84265C16.4015 5.62931 16.1979 5.4894 15.9736 5.49985C15.7669 5.5093 15.588 5.64613 15.5234 5.84265C15.5234 5.84265 15.1242 6.99792 13.999 6.99792H10.998C10.7217 6.99892 10.4988 7.22366 10.4999 7.49989V8.03697C9.56278 7.78509 8.49989 8.47818 8.49989 9.49207C8.49989 10.9458 9.52904 11.8691 10.7509 11.9862C11.0039 12.7139 11.4403 13.3533 12.0018 13.8553V16.5008C12.0014 16.605 12.0334 16.7068 12.0936 16.7918L14.5927 20.2909C14.792 20.5716 15.2088 20.5716 15.4081 20.2909L17.9071 16.7918C17.9673 16.7068 17.9994 16.6049 17.9989 16.5008V13.8573C18.5606 13.356 18.9971 12.7168 19.2499 11.9891C20.4052 11.8718 21.4989 10.9883 21.4989 9.49155C21.4989 8.93568 21.1589 8.46364 20.7313 8.21276C20.9033 7.45732 20.999 6.70887 20.999 5.99998ZM16 7.00391C16.3178 7.43157 16.9591 7.99805 18 7.99805H18.498V10.501C18.498 12.4486 16.9467 14 14.999 14C13.0514 14 11.5 12.4486 11.5 10.501V7.99805H13.999C15.0415 7.99805 15.641 7.45421 16 7.00391ZM20.4951 9.51168C20.501 10.2644 20.0366 10.7625 19.4775 10.9268C19.5172 10.3476 19.498 9.15816 19.498 9.15816C19.7486 8.85802 20.491 8.97807 20.4951 9.51168ZM10.5 9.16796C10.4961 9.74528 10.4906 10.3784 10.5215 10.9268C9.96242 10.7625 9.50393 10.2327 9.50393 9.51174C9.50393 8.98587 10.2618 8.84364 10.5 9.16796ZM13.002 14.5342C13.6037 14.8321 14.2811 15 14.999 15C15.7176 15 16.3964 14.8318 16.999 14.5342V16.3379L14.998 19.1358L13.002 16.3379V14.5342ZM10.5 16C6.90766 16 4 18.9077 4 22.5V29.5C4.00003 29.7761 4.22387 30 4.5 30H25.5C25.7761 30 26 29.7761 26 29.5V22.5C26 18.9077 23.0923 16 19.5 16C18.8238 15.9905 18.8238 17 19.501 17L19.502 20.5518C18.3627 20.7835 17.501 21.794 17.501 23V23.4981C17.4863 24.1793 18.501 24.1794 18.501 23.4981V23C18.501 22.1603 19.1604 21.5019 20 21.5019C20.8397 21.5019 21.4981 22.1603 21.4981 23V23.4981C21.4828 24.1798 22.5134 24.1798 22.4981 23.4981V23C22.4981 21.7957 21.6389 20.7864 20.502 20.5527V17.0947C23.072 17.5616 25 19.7875 25 22.5V26.001H22.498V25.499C22.498 24.8096 21.498 24.8505 21.498 25.499V29H8.49903V25.499C8.49903 24.8259 7.49805 24.828 7.49805 25.499V26.001H5V22.5C5 19.7872 6.92847 17.5612 9.49903 17.0947V21.0928C8.92032 21.3013 8.49903 21.8519 8.49903 22.498C8.49903 23.3205 9.17848 24 10.001 24C10.8235 24 11.5 23.3205 11.5 22.498C11.5 21.8507 11.0784 21.2995 10.499 21.0918L10.4995 17C11.1762 17.0094 11.1762 15.9904 10.5 16ZM10.001 22C10.283 22 10.499 22.216 10.499 22.498C10.499 22.7801 10.283 23 10.001 23C9.71891 23 9.49903 22.7801 9.49903 22.498C9.49903 22.216 9.71891 22 10.001 22ZM5 27.0019H7.49805V29H5V27.0019ZM22.498 27.0019H25V29H22.498V27.0019Z" fill="#757575"/>
</g>
<defs>
<clipPath id="clip0_465_902">
<rect width="30" height="30" fill="white"/>
</clipPath>
</defs>
</svg>
